<?xml version="1.0" encoding="utf-8"?>
<!-- Generator: Adobe Illustrator 26.0.3, SVG Export Plug-In . SVG Version: 6.00 Build 0)  -->
<svg version="1.1" id="Layer_1" xmlns="http://www.w3.org/2000/svg" xmlns:xlink="http://www.w3.org/1999/xlink" x="0px" y="0px"
	 viewBox="0 0 416 209" enable-background="new 0 0 416 209" xml:space="preserve">
<g>
	<g>
		<g>
			<path fill="#FFFFFF" d="M78.5,176v-34.8H0v-24.3L75.9,4h31.3v112.9h19.5v24.3h-19.5V176H78.5z M79.5,116.9l1.7-84l-53.7,84H79.5z
				"/>
		</g>
	</g>
	<g opacity="0.94">
		<g>
			<path fill="#FFFFFF" d="M367.8,176v-34.8h-78.5v-24.3L365.2,4h31.3v112.9H416v24.3h-19.5V176H367.8z M368.8,116.9l1.7-84
				l-53.7,84H368.8z"/>
		</g>
	</g>
	<g opacity="0.94">
		<path fill="#FFFFFF" d="M272.6,91.8c0,27.6-5.7,49.2-17.2,64.8C244,172.2,228.3,180,208.3,180c-20.3,0-36-7.9-47.3-23.7
			c-11.3-15.8-16.9-37.9-16.9-66.5c0-28.3,5.7-50.4,17.1-66.2C172.5,7.9,188.4,0,208.6,0C229.2,0,245,7.9,256,23.8
			C267.1,39.6,272.6,62.3,272.6,91.8z M207.8,155.7c11.9,0,20.8-5.5,26.8-16.5c6-11,9-27.5,9-49.5c0-21.4-3-37.6-8.9-48.8
			c-5.9-11.2-14.5-16.8-25.8-16.8c-11.8,0-20.7,5.6-26.7,16.7c-6,11.1-9,27.6-9,49.3c0,21.1,3,37.3,9,48.6
			C188.1,150.1,196.6,155.7,207.8,155.7z"/>
	</g>
</g>
<g>
	<g>
		
			<linearGradient id="SVGID_1_" gradientUnits="userSpaceOnUse" x1="191.0526" y1="60.7282" x2="238.4677" y2="60.7282" gradientTransform="matrix(0.9977 -6.800000e-02 6.800000e-02 0.9977 -14.9216 21.3141)">
			<stop  offset="0" style="stop-color:#34254C"/>
			<stop  offset="1" style="stop-color:#51397F"/>
		</linearGradient>
		<path fill="url(#SVGID_1_)" d="M181.9,77.9c0,0-2.7-8.2-1.8-9.3c0.9-1.2,12.7-6.3,27.8-9.5c15.1-3.2,15.8-2,17-1.1
			s2.6,10.1,2.6,12C227.4,71.8,181.9,77.9,181.9,77.9z"/>
		
			<linearGradient id="SVGID_00000045590605559119732500000016475736787060715414_" gradientUnits="userSpaceOnUse" x1="183.176" y1="115.2647" x2="238.2927" y2="115.2647" gradientTransform="matrix(0.9977 -6.800000e-02 6.800000e-02 0.9977 -14.9216 21.3141)">
			<stop  offset="0" style="stop-color:#E1DAE5"/>
			<stop  offset="1" style="stop-color:#F7F4F9"/>
		</linearGradient>
		<path fill="url(#SVGID_00000045590605559119732500000016475736787060715414_)" d="M253.4,139.7l-1,2.3l-7.3,16.1l-7,15.5
			c-3.5-2.4-4.6-11.4-4.4-18.2c0.2-6.8-0.8-11.3-0.8-11.3c-2.1-1-3.8-2.8-5.1-4.5c-0.9-1.2-1.6-2.4-2.1-3.2l0,0
			c-0.4-0.8-0.7-1.3-0.7-1.3c-8.2,0.4-13.8-4.9-15.1-5.8c-1.3-0.9-3.8-0.1-6.3,5.5c-2.2,5-7.8,7-8.9,7.4c-0.1,0-0.2,0.1-0.2,0.1
			c-0.2,1.3-0.5,2.5-0.8,3.6c-2.1,8.8-4.6,10-4.6,10c-0.3,2.9,1.4,7,1.9,12.4c0.5,5.3,0,13.6,0,13.6l-7.4-4.6l-14.4-9
			c0,0-5.5-12.9-5.1-17.2c0.1-1.2,0.4-2.3,0.7-3.3c0.4-1.1,0.9-2.1,1.4-2.8c0,0,0,0,0,0c0.6-0.9,1-1.4,1-1.4s0-0.7,0-1.8
			c0-0.5,0-1,0.1-1.6c0.1-1.4,0.3-3,0.6-4.5c0.1-0.4,0.2-0.8,0.3-1.2c0.2-0.7,0.5-1.3,0.8-1.9c0.3-0.6,0.7-1.1,1-1.6l0,0
			c0,0,0,0,0,0c0,0,0,0,0-0.1c0,0,0,0,0,0c0,0,0,0,0,0c0,0,0,0,0,0c0,0,0,0,0,0c0,0,0.1-0.1,0.1-0.1c0,0,0.1-0.1,0.1-0.1
			c0.1-0.1,0.2-0.2,0.3-0.4c0.6-0.8,1.1-1.2,1.1-1.2c0,0,0,0,0,0c0,0,0,0,0,0s0.3-1.1,0.8-2.7c0.3-1.3,0.7-2.8,1.1-4.3
			c0.9-3.5,0.8-4.8,3-6.5c2.2-1.7,2.8-3.1,4.1-4.2c0,0,0,0,0,0c0,0,0,0,0.1-0.1c0.8-0.6,2.1-1.5,3.2-2.1c0,0,0,0,0,0
			c0.8-0.5,1.5-0.9,1.5-0.9c0-2.5,0.8-4.6,0.8-4.6c-0.2-0.3-0.5-0.9-0.6-1.5c-0.2-0.7-0.3-1.3-0.3-1.3c-0.4,0.2-0.7,0.5-1.1,0.7l0,0
			c-3.8,2.2-6.5,1.4-6.5,1.4c-1,0.4-2,0.7-3,0.9c-1.3,0.3-2.6,0.3-3.9,0.2c-6.4-0.6-10.8-5.3-10.8-5.3l3.3-4.7l7.3-10.4
			c1.3,0.2,2.3,0.6,2.9,1.1c0,0,0,0,0,0c0.2,0.1,0.4,0.3,0.6,0.4c0,0,0,0,0,0c0.1,0.1,0.2,0.2,0.3,0.2c0.4,0.4,0.6,0.7,0.6,0.8
			c0,0,0,0,0,0c0,0,0,0,0,0c0,0,0,0,0,0l0,0c0-0.2,0.1-0.5,0.1-0.7c0.1-0.5,0.3-0.9,0.4-1.3c0-0.1,0.1-0.1,0.1-0.2
			c0.2-0.3,0.5-0.6,0.7-0.8c0.4-0.3,0.8-0.4,0.8-0.4c0-0.2,0-0.4,0.1-0.6c1-7.7,6-7.9,6-7.9c1-5.8,6.9-5.8,6.9-5.8s1.2,0.3,3.2,0.6
			c0,0,0,0,0,0c3.1,0.4,8,0.8,12.6-0.1c5.1-1,8.2-3.7,9.7-5.4c0.7-0.8,1.1-1.3,1.1-1.3c4.8-1.1,8.6,4.9,8.6,4.9c2.8,0,5,1.8,6.2,3.2
			c0.8,0.8,1.2,1.5,1.2,1.5c0,0,0.1-0.1,0.1-0.1c0.3-0.4,0.7-0.8,1-1.1c0,0,0,0,0,0c0,0,0,0,0,0c0,0,0,0,0,0l0,0
			c0.1-0.1,0.1-0.1,0.2-0.2l0,0c0.6-0.5,1.2-0.8,1.8-1.1c1.5-0.7,2.8-0.9,2.8-0.9l6.5,13.5l1.4,2.9c0,0-0.8,4.2-5.3,6.5
			c-0.4,0.2-0.8,0.4-1.3,0.6c-0.3,0.1-0.7,0.2-1,0.3c-3.7,0.8-7.7-0.8-10-2l0,0c0,0,0,0-0.1,0c0,0,0,0-0.1,0c0,0-0.1,0-0.1-0.1
			c-1-0.5-1.6-0.9-1.6-0.9c0.2,0.6,0.4,1.3,0.5,2l0,0c0,0.1,0,0.3,0.1,0.4c0.5,3,0.1,6,0.1,6c0.7,2,1,3.5,1.1,4.6
			c0.2,1.9-0.3,2.7-0.4,2.9c0,0,0,0.1,0,0.1c0,0,0.1-0.1,0.4-0.2c0,0,0,0,0,0c0.3-0.1,0.7-0.3,1.3-0.4c0.1,0,0.2,0,0.3-0.1
			c0,0,0,0,0,0c0.3-0.1,0.7-0.1,1.1-0.1c0,0,0,0,0,0c1.4-0.1,3.3,0,5.6,0.8c0,0,0,0,0,0c0.1,0,0.1,0,0.2,0.1c0.1,0,0.2,0.1,0.3,0.1
			c6,2.3,8.6,11.9,8.6,11.9c0.7,0.4,1.7,1.4,2.7,2.8c1.4,2,2.8,5,3.2,8.3C252.7,133.9,253.4,139.7,253.4,139.7z"/>
		
			<linearGradient id="SVGID_00000098186014390171298760000003271464369660117673_" gradientUnits="userSpaceOnUse" x1="166.5289" y1="89.8022" x2="182.0379" y2="89.8022" gradientTransform="matrix(0.9977 -6.800000e-02 6.800000e-02 0.9977 -14.9216 21.3141)">
			<stop  offset="0" style="stop-color:#C8B8D3"/>
			<stop  offset="1" style="stop-color:#C8B8D3;stop-opacity:0.3"/>
		</linearGradient>
		<path fill="url(#SVGID_00000098186014390171298760000003271464369660117673_)" d="M170.8,103.9c-6.4-0.6-10.8-5.3-10.8-5.3
			l3.3-4.7c1.1,1.5,3.6,4.1,7.1,4.9c1.2,0.3,2.3,0.4,3.3,0.3C173.1,100.8,172.2,102.4,170.8,103.9z"/>
		
			<linearGradient id="SVGID_00000037691107887084811840000005578778771165164475_" gradientUnits="userSpaceOnUse" x1="164.3837" y1="104.6655" x2="229.6161" y2="104.6655" gradientTransform="matrix(0.9977 -6.800000e-02 6.800000e-02 0.9977 -14.9216 21.3141)">
			<stop  offset="0" style="stop-color:#C8B8D3"/>
			<stop  offset="1" style="stop-color:#C8B8D3;stop-opacity:0.3"/>
		</linearGradient>
		<path fill="url(#SVGID_00000037691107887084811840000005578778771165164475_)" d="M224.9,104.3l-5,7.6c0,0-4.4,7.1-12.7,6.4
			c-8.3-0.7-15.7-8.3-21.7-4.8c-5.9,3.4-9.4,11.1-9.4,11.1l3.4-1c0,0-6,4-7.1,6.5c-0.2,0.6-0.2,1.1,0.2,1.4l-3.6,1.1
			c0.3-0.6,0.7-1.1,1-1.6l0,0c0,0,0,0,0,0c0,0,0,0,0-0.1c0,0,0,0,0,0c0,0,0,0,0,0c0,0,0,0,0,0c0,0,0,0,0,0c0,0,0.1-0.1,0.1-0.1
			c0,0,0.1-0.1,0.1-0.1c0.1-0.1,0.2-0.2,0.3-0.4c0.6-0.8,1.1-1.2,1.1-1.2c0,0,0,0,0,0c0,0,0,0,0,0s0.3-1.1,0.8-2.7
			c0.3-1.3,0.7-2.8,1.1-4.3c0.9-3.5,0.8-4.8,3-6.5c2.2-1.7,2.8-3.1,4.1-4.2c0,0,0,0,0,0c0,0,0,0,0.1-0.1c0.8-0.6,2.1-1.5,3.2-2.1
			c0,0,0,0,0,0c0.8-0.5,1.5-0.9,1.5-0.9c0-2.5,0.8-4.6,0.8-4.6c-0.2-0.3-0.5-0.9-0.6-1.5c-0.2-0.7-0.3-1.3-0.3-1.3
			c-0.4,0.2-0.7,0.5-1.1,0.7l0,0c-3.8,2.2-6.5,1.4-6.5,1.4c-1,0.4-2,0.7-3,0.9c0.6-1.1,1.4-2.8,1.8-5.2c1.3-0.5,2.1-1.2,2.1-1.2
			s1,1.4,3.6,1.2c2.5-0.2,7.4-2.4,7.4-5.1c0,0,2,9,12.1,12.1C211.6,108.7,220.8,105.9,224.9,104.3z"/>
		
			<linearGradient id="SVGID_00000052822165293752131130000006991076799403601834_" gradientUnits="userSpaceOnUse" x1="187.4921" y1="153.8471" x2="200.8882" y2="153.8471" gradientTransform="matrix(0.9977 -6.800000e-02 6.800000e-02 0.9977 -14.9216 21.3141)">
			<stop  offset="0" style="stop-color:#C8B8D3;stop-opacity:0.9"/>
			<stop  offset="1" style="stop-color:#C8B8D3;stop-opacity:0.3"/>
		</linearGradient>
		<path fill="url(#SVGID_00000052822165293752131130000006991076799403601834_)" d="M189.1,155.8c-0.3,2.9,1.4,7,1.9,12.4
			c0.5,5.3,0,13.6,0,13.6l-7.4-4.6c1.7-4.7-0.5-11.8-0.7-17c-0.3-6.5,3.7-6.7,3.7-6.7c-1.8-5.6,0.7-9.9,3.4-12.1
			c1.8,1.7,3,3.2,3.8,4.5C191.6,154.6,189.1,155.8,189.1,155.8z"/>
		
			<linearGradient id="SVGID_00000042737797270305977090000018424683437613326999_" gradientUnits="userSpaceOnUse" x1="198.7738" y1="125.8898" x2="239.4077" y2="125.8898" gradientTransform="matrix(0.9977 -6.800000e-02 6.800000e-02 0.9977 -14.9216 21.3141)">
			<stop  offset="0" style="stop-color:#C8B8D3;stop-opacity:0.9"/>
			<stop  offset="1" style="stop-color:#C8B8D3;stop-opacity:0.3"/>
		</linearGradient>
		<path fill="url(#SVGID_00000042737797270305977090000018424683437613326999_)" d="M228.7,129.1c-1.9,3.1-2.8,5.8-3.1,7.2
			c-0.4-0.8-0.7-1.3-0.7-1.3c-8.2,0.4-13.8-4.9-15.1-5.8c-1.3-0.9-3.8-0.1-6.3,5.5c-2.2,5-7.8,7-8.9,7.4c-0.5-0.6-1.3-1.6-2.3-2.7
			c1.9-1.9,3.5-4.6,6.2-8.9c3.4-5.4,7.8-6.6,10-7c3.4-0.7,5,1.4,12.8,4.8C224,129.5,226.6,129.5,228.7,129.1z"/>
		
			<linearGradient id="SVGID_00000041277178293977768280000008885904926587359111_" gradientUnits="userSpaceOnUse" x1="234.024" y1="146.6249" x2="251.6324" y2="146.6249" gradientTransform="matrix(0.9977 -6.800000e-02 6.800000e-02 0.9977 -14.9216 21.3141)">
			<stop  offset="0" style="stop-color:#C8B8D3;stop-opacity:0.9"/>
			<stop  offset="1" style="stop-color:#C8B8D3;stop-opacity:0.3"/>
		</linearGradient>
		<path fill="url(#SVGID_00000041277178293977768280000008885904926587359111_)" d="M245,158.2l-7,15.5c-3.5-2.4-4.6-11.4-4.4-18.2
			c0.2-6.8-0.8-11.3-0.8-11.3c-2.1-1-3.8-2.8-5.1-4.5c1.1-2.2,3.5-6.9,6.7-10.8c-1.1,4.6,1.1,8.1,3.7,11.2c0,0-0.8,7,0.6,13.1
			C239.6,157,242.8,158,245,158.2z"/>
		
			<linearGradient id="SVGID_00000166636215381587303190000001421921737237924270_" gradientUnits="userSpaceOnUse" x1="262.2578" y1="114.4057" x2="246.6478" y2="122.6048" gradientTransform="matrix(0.9977 -6.800000e-02 6.800000e-02 0.9977 -14.9216 21.3141)">
			<stop  offset="0" style="stop-color:#FFFFFF"/>
			<stop  offset="1" style="stop-color:#FFFFFF;stop-opacity:0"/>
		</linearGradient>
		<path fill="url(#SVGID_00000166636215381587303190000001421921737237924270_)" d="M253.4,139.7l-1,2.3c-2-2.2-3.7-6.9-4.6-13.3
			c-1.2-8.8-6.6-10-6.6-10c2.1-7-2.7-12.7-3.7-13.6c0.1,0,0.2,0.1,0.3,0.1c6,2.3,8.6,11.9,8.6,11.9c0.7,0.4,1.7,1.4,2.7,2.8
			c1.4,2,2.8,5,3.2,8.3C252.7,133.9,253.4,139.7,253.4,139.7z"/>
		
			<linearGradient id="SVGID_00000127043809792596950170000005925828865380742300_" gradientUnits="userSpaceOnUse" x1="189.0733" y1="61.6674" x2="199.4813" y2="78.9353" gradientTransform="matrix(0.9977 -6.800000e-02 6.800000e-02 0.9977 -14.9216 21.3141)">
			<stop  offset="0" style="stop-color:#C8B8D3"/>
			<stop  offset="1" style="stop-color:#C8B8D3;stop-opacity:0.3"/>
		</linearGradient>
		<path fill="url(#SVGID_00000127043809792596950170000005925828865380742300_)" d="M187.1,73.4c0.5,3.1,5.8,3.2,5.8,3.2
			c-3.3,1-6,0.7-9.3,0.2c-3.4-0.6-5.6,5.4-4.7,5.8c0.9,0.4,1.8,2,1.8,2c-2.6-1.2-3,0-2.2,2.8c0.8,2.8,0.5,7.1,0.5,7.1
			c-0.5-2.9-2.4-6.8-3.6-9.1c0.1-0.5,0.3-0.9,0.4-1.3c0-0.1,0.1-0.1,0.1-0.2c0.2-0.3,0.5-0.6,0.7-0.8c0.4-0.3,0.8-0.4,0.8-0.4
			c0-0.2,0-0.4,0.1-0.6c1-7.7,6-7.9,6-7.9c1-5.8,6.9-5.8,6.9-5.8s1.2,0.3,3.2,0.6C191,68.7,186.6,70.3,187.1,73.4z"/>
		
			<linearGradient id="SVGID_00000168814109960993920960000005320284344669516965_" gradientUnits="userSpaceOnUse" x1="241.0936" y1="52.8211" x2="231.9472" y2="69.0639" gradientTransform="matrix(0.9977 -6.800000e-02 6.800000e-02 0.9977 -14.9216 21.3141)">
			<stop  offset="0" style="stop-color:#FFFFFF"/>
			<stop  offset="1" style="stop-color:#FFFFFF;stop-opacity:0"/>
		</linearGradient>
		<path fill="url(#SVGID_00000168814109960993920960000005320284344669516965_)" d="M232.9,71.7l-0.1,0.6c-3.6-3.7-8.4-3.1-8.4-3.1
			c-0.6,2.7-5.3,3.2-5.3,3.2s3.7-2,3.2-4.3s-6.5-4.5-6.5-4.5c0,0,0-0.1-0.1-0.1c0.7-0.8,1.1-1.3,1.1-1.3c4.8-1.1,8.6,4.9,8.6,4.9
			c2.8,0,5,1.8,6.2,3.2c0.8,0.8,1.2,1.5,1.2,1.5C232.9,71.8,232.9,71.8,232.9,71.7z"/>
		<path fill="#CEC4D6" d="M171.1,135.8c-0.1,0.3-3.7,8.9-6.3,11.9c0,0,0,0,0,0c0.4-1.1,0.9-2.1,1.4-2.8c0,0,0,0,0,0
			c0.6-0.9,1-1.4,1-1.4s0-0.7,0-1.8c0-0.5,0-1,0.1-1.6C168.4,139.3,170.2,137.8,171.1,135.8z"/>
		<path fill="#E5DFE9" d="M236.4,87.8c0.7,1.5,1.6,3,2.7,4.5c-3.7,0.8-7.7-0.8-10-2l0,0c0,0,0,0-0.1,0c0,0,0,0-0.1,0
			c0,0-0.1,0-0.1-0.1c-1-0.5-1.6-0.9-1.6-0.9c0.2,0.6,0.4,1.3,0.5,2l0,0c0,0.1,0,0.3,0.1,0.4c-4.7-6.5-6.8-15.1-6.9-15.5
			c0.1,0.4,3.1,8.8,10.4,11.1C233.2,87.7,234.9,87.9,236.4,87.8z"/>
		<path fill="#E5DFE9" d="M246.7,84.8c0,0-0.8,4.2-5.3,6.5c-0.7-0.9-1.6-2.3-2.5-4.1c3.5-1.2,5.6-4,6.4-5.3L246.7,84.8z"/>
		<g>
			
				<linearGradient id="SVGID_00000083064589507638830100000003353364468233858970_" gradientUnits="userSpaceOnUse" x1="190.4381" y1="103.0831" x2="230.4554" y2="103.0831" gradientTransform="matrix(0.9977 -6.800000e-02 6.800000e-02 0.9977 -14.9216 21.3141)">
				<stop  offset="0" style="stop-color:#34254C"/>
				<stop  offset="1" style="stop-color:#51397F"/>
			</linearGradient>
			<path fill="url(#SVGID_00000083064589507638830100000003353364468233858970_)" d="M230.3,104.4L230.3,104.4c0,0-6.7,3.8-7.8,5
				c-1.1,1.2-2,3.1-7.2,4.6c-1.2,0.4-2.7,0.8-4.4,1c-4.5,0.8-10.1,0.8-14.7-1.8c0,0-1.8-3.1-5.9-4.9c0.2,0,3.5,0.8,6.1,0.9
				c0.2,0,0.4,0,0.6,0c0.3,0,0.6,0,0.9,0c0,0,0.5-0.6,1-0.9c0.6-0.2,2-0.2,3.8-0.2c0.2,0,0.5,0,0.7,0c1.1,0,2.3-0.1,3.5-0.2
				c1.1-0.1,2.2-0.2,3.1-0.4c0.3,0,0.5-0.1,0.7-0.1c1.7-0.3,3-0.5,3.3-0.5c0.8-0.1,1.5,0.4,1.8,0.7c0.1,0.1,0.1,0.1,0.1,0.1
				s0.2-0.1,0.5-0.2c0.6-0.2,1.6-0.6,2.9-1.1c0.2-0.1,0.4-0.1,0.5-0.2c0.4-0.1,0.8-0.3,1.1-0.5c0.1-0.1,0.3-0.1,0.4-0.2l0,0
				c1-0.4,2-0.8,3-1.3c0.1,0,0.2-0.1,0.3-0.1c1.6-0.8,3.1-1.6,4.1-2.3c0,0.2,0,0.5,0,0.7c0,1.4-0.3,2.1-0.4,2.3c0,0,0,0.1,0,0.1
				c0,0,0.1-0.1,0.4-0.2c0,0,0,0,0,0C229.3,104.7,229.7,104.5,230.3,104.4z"/>
			
				<linearGradient id="SVGID_00000099637005849389642620000013683663096824848572_" gradientUnits="userSpaceOnUse" x1="197.3632" y1="104.3333" x2="244.484" y2="102.3556" gradientTransform="matrix(0.9977 -6.800000e-02 6.800000e-02 0.9977 -14.9216 21.3141)">
				<stop  offset="0" style="stop-color:#2D2244"/>
				<stop  offset="1" style="stop-color:#3E2C5E;stop-opacity:0"/>
			</linearGradient>
			<path fill="url(#SVGID_00000099637005849389642620000013683663096824848572_)" d="M229.1,102.7c-1.6,1-7.6,4.5-12.4,5.7l-0.1,2.1
				c0-0.2-0.1-2.6-5-1.8c-5.2,0.8-10.2,0.9-10.2,0.9s1.4,6.1,9.5,5.5c-4.5,0.8-10.1,0.8-14.7-1.8c0,0-1.8-3.1-5.9-4.9
				c0.2,0,3.5,0.8,6.1,0.9c0.2,0,0.4,0,0.6,0c0.3,0,0.6,0,0.9,0c0,0,0.5-0.6,1-0.9c0.6-0.2,2-0.2,3.8-0.2c0.2,0,0.5,0,0.7,0
				c1.1,0,2.3-0.1,3.5-0.2c1.1-0.1,2.2-0.2,3.1-0.4c0.3,0,0.5-0.1,0.7-0.1c1.7-0.3,3-0.5,3.3-0.5c0.8-0.1,1.5,0.4,1.8,0.7
				c0.1,0.1,0.1,0.1,0.1,0.1s0.2-0.1,0.5-0.2c0.6-0.2,1.6-0.6,2.9-1.1c0.2-0.1,0.4-0.1,0.5-0.2c0.4-0.1,0.8-0.3,1.1-0.5
				c0.1-0.1,0.3-0.1,0.4-0.2l0,0c1-0.4,2-0.8,3-1.3c0.1,0,0.2-0.1,0.3-0.1c1.6-0.8,3.1-1.6,4.1-2.3
				C229.1,102.3,229.1,102.5,229.1,102.7z"/>
			<g>
				<path fill="#5C479E" d="M203.5,108.2l0,6.6l-0.7-6.6C203,108.2,203.2,108.2,203.5,108.2z"/>
				<path fill="#5C479E" d="M210.9,107.6l-0.3,6.7l-0.4-6.6C210.4,107.7,210.6,107.7,210.9,107.6z"/>
				<path fill="#5C479E" d="M197.1,109.3l-0.4,2.8l-0.2-2.8C196.7,109.3,196.9,109.3,197.1,109.3z"/>
				<path fill="#5C479E" d="M216.3,112.7c0-1.9-0.2-3.9-0.3-4.9c0.1,0.1,0.1,0.1,0.1,0.1s0.2-0.1,0.5-0.2
					C216.8,110.5,216.3,112.7,216.3,112.7z"/>
				<path fill="#5C479E" d="M220.1,106.4l-0.3,4.1l-0.3-3.9C219.7,106.6,219.9,106.5,220.1,106.4z"/>
				<path fill="#5C479E" d="M221.6,105.8l-0.2,3l-0.2-2.9C221.4,105.9,221.5,105.9,221.6,105.8z"/>
				<path fill="#5C479E" d="M224.9,104.4l-0.2,2.4l-0.2-2.2C224.7,104.5,224.8,104.4,224.9,104.4z"/>
			</g>
		</g>
		<g>
			<path fill="#ACA5B5" d="M201.2,115.6c-3.4,1-7.4-6.9-14-6.3c-2.3,0.2-4.8,1.2-6.4,1.9c0,0,0,0,0.1-0.1c0.8-0.6,2.1-1.5,3.2-2.1
				c0,0,0,0,0,0c0.2-0.1,2-0.9,5.7-0.7C194.5,108.6,197.8,115.2,201.2,115.6z"/>
			<path fill="#ACA5B5" d="M237.3,105c-9.3-1.2-18.1,8.1-18.1,8.1c3.8-4.9,7.2-7.1,9.5-8.1c0.1,0,0.2-0.1,0.3-0.1c0,0,0,0,0,0
				c0.6-0.2,1.1-0.4,1.5-0.5c0,0,0,0,0,0c0.7-0.1,1-0.2,1.1-0.1c0,0,0,0,0,0C233,104.1,234.9,104.2,237.3,105z"/>
			<polygon fill="#ACA5B5" points="170.1,130.9 170.1,130.9 170.1,130.9 			"/>
			<path fill="#ACA5B5" d="M179.6,123.5c-5.8,2.5-9.1,6.8-9.5,7.3c0.9-1.2,1.6-1.9,1.6-1.9s0.3-1.1,0.8-2.7
				C175.6,124.6,179.5,123.6,179.6,123.5z"/>
			<path fill="#ACA5B5" d="M169.2,139.7c-1.3,3.3-2.9,5.1-3,5.2c0.6-0.9,1-1.4,1-1.4s0-0.7,0-1.8C168.4,141,169.1,139.8,169.2,139.7
				z"/>
			<path fill="#C0B8CC" d="M234,70.7c-0.4,0.3-3.3,3.3-2.4,12.3c0,0-1.9-6.7,0.1-12.6c0.8,0.8,1.2,1.5,1.2,1.5
				C233.2,71.4,233.6,71,234,70.7z"/>
			<path fill="#ACA5B5" d="M234,70.7C234,70.7,234,70.7,234,70.7C234,70.7,234,70.7,234,70.7C234,70.7,234,70.7,234,70.7z"/>
			<path fill="#ACA5B5" d="M175.1,86c-0.3-0.5-0.6-0.8-0.9-1C174.8,85.5,175.1,85.9,175.1,86z"/>
			<path fill="#ACA5B5" d="M178.9,94.5c-1.4-4.6-2.8-7.1-3.7-8.5l0,0c0.1-0.8,0.3-1.5,0.5-1.9C178.1,88.6,178.9,94.5,178.9,94.5z"/>
			<path fill="#ACA5B5" d="M180.5,84.1c-2-1.8-4.1-1-4.1-1c0.4-0.3,0.8-0.4,0.8-0.4c0-0.2,0-0.4,0.1-0.6
				C179.6,82.6,180.5,84.1,180.5,84.1z"/>
			<path fill="#ACA5B5" d="M189.7,97.6c-0.1,0.1-2,2.6-4,4.4c-0.2-0.7-0.3-1.3-0.3-1.3C185,101,189.7,97.6,189.7,97.6z"/>
			<path fill="#ACA5B5" d="M227.2,89.2c0.2,0.6,0.4,1.3,0.5,2c-2-2.2-2.8-5.1-2.9-5.2c1.3,2.5,3.2,3.8,3.9,4.2
				C227.8,89.6,227.2,89.2,227.2,89.2z"/>
		</g>
		<path fill="#34254C" d="M194.3,101.1l1.5,2.2c-2.4,1.9-6.7,4.4-9,4.7c-2.3,0.3-3.8-0.1-4.1-1.5c-0.2-1.1,1.7-2.9,2.6-3.7
			c0.3-0.3,0.5-0.4,0.5-0.4l0.5,1c0,0-2.8,2.9-0.9,3.2c0.1,0,0.1,0,0.2,0c2.2,0.2,8.6-5.8,8.6-5.8"/>
		<path fill="#51347F" d="M185.4,106.7L185.4,106.7c0,0-1.7,0.1-1.6-1.1c0-0.7,0.9-1.8,1.6-2.7c0.3-0.3,0.5-0.4,0.5-0.4l0.5,1
			C186.3,103.5,183.5,106.3,185.4,106.7z"/>
		<path fill="#34254C" d="M232.9,98.8c-0.4,0.6-1.2,1.3-2.4,2c-3,1.7-9.1,0.3-9.1,0.3l-0.7-3.3c0,0,3.9,2.1,7.9,1.8
			c0.9-0.1,1.6-0.2,2.1-0.4c1.4-0.5,1.6-1.3,1.2-1.9c-0.5-0.8-3.9-0.2-3.9-0.2l0.1-2.7c0,0,1.6,0.1,3,0.5c0.8,0.2,1.6,0.6,1.9,1.1
			C233.4,96.9,233.6,97.8,232.9,98.8z"/>
		<path fill="#51347F" d="M232.9,98.8c-0.9,0.7-2.3,0.4-2.3,0.4c2.6-0.8,1-3.4,0.4-4.3c0.8,0.2,1.6,0.6,1.9,1.1
			C233.4,96.9,233.6,97.8,232.9,98.8z"/>
		<g>
			
				<linearGradient id="SVGID_00000163769024005341238340000013874041231687155381_" gradientUnits="userSpaceOnUse" x1="194.4158" y1="60.6993" x2="202.3008" y2="86.667" gradientTransform="matrix(0.9977 -6.800000e-02 6.800000e-02 0.9977 -14.9216 21.3141)">
				<stop  offset="0" style="stop-color:#CE1D3B"/>
				<stop  offset="1" style="stop-color:#ED202E"/>
			</linearGradient>
			<path fill="url(#SVGID_00000163769024005341238340000013874041231687155381_)" d="M188.4,65.9c0,0-4.7,2.1-4.1,12.5
				c0.6,10.4,9.1,15.8,9.1,15.8l0.2,2.2c0,0-6.6-2.1-10.4-10.5c-3.7-8.4-0.8-18.9,5-21.1L188.4,65.9z"/>
			
				<linearGradient id="SVGID_00000054978219391838900730000008369344901694788748_" gradientUnits="userSpaceOnUse" x1="228.686" y1="48.9951" x2="233.5221" y2="71.178" gradientTransform="matrix(0.9977 -6.800000e-02 6.800000e-02 0.9977 -14.9216 21.3141)">
				<stop  offset="0" style="stop-color:#CE1D3B"/>
				<stop  offset="1" style="stop-color:#ED202E"/>
			</linearGradient>
			<path fill="url(#SVGID_00000054978219391838900730000008369344901694788748_)" d="M216.6,58.7c0,0,6,2.3,8.6,10.5
				c2.6,8.2-2.1,13.9-6.7,17.5l1.5,3.5c0,0,8.2-5,9-13.7c0.8-8.7-5.3-16.9-11.3-20.2L216.6,58.7z"/>
			
				<linearGradient id="SVGID_00000124121153233632424480000000960034428381615489_" gradientUnits="userSpaceOnUse" x1="201.1297" y1="87.6874" x2="224.3639" y2="86.2155" gradientTransform="matrix(0.9977 -6.800000e-02 6.800000e-02 0.9977 -14.9216 21.3141)">
				<stop  offset="0" style="stop-color:#A193AD"/>
				<stop  offset="0.9961" style="stop-color:#CEC4D6"/>
			</linearGradient>
			<path fill="url(#SVGID_00000124121153233632424480000000960034428381615489_)" d="M221.6,102.5c0,0.5-4.2,1.2-5.8,1.5
				c-6.4,1.2-13,2-19.8,2.5c-0.2,0-0.5-0.1-0.5-0.4c-1.7-5.2-2.8-10.6-3.5-16.1c-0.2-1.6-0.4-3.3-0.5-4.9c0-0.5,0.3-1,0.8-1.1
				c8.7-2.5,17.4-3.9,26-3.9c0.5,0,0.9,0.4,1.1,0.9C220.8,87.2,221.9,99,221.6,102.5z"/>
			
				<linearGradient id="SVGID_00000032611841267537724600000016950282301027698833_" gradientUnits="userSpaceOnUse" x1="217.884" y1="96.2398" x2="214.7122" y2="71.6819" gradientTransform="matrix(0.9977 -6.800000e-02 6.800000e-02 0.9977 -14.9216 21.3141)">
				<stop  offset="0" style="stop-color:#E1DAE5"/>
				<stop  offset="1" style="stop-color:#F7F4F9"/>
			</linearGradient>
			<path fill="url(#SVGID_00000032611841267537724600000016950282301027698833_)" d="M221.4,101.1c0,0.5-4.2,1.2-5.8,1.5
				c-6.4,1.2-13,2-19.8,2.5c-0.2,0-0.5-0.1-0.5-0.4c-1.7-5.2-2.8-10.6-3.5-16.1c-0.2-1.6-0.4-3.3-0.5-4.9c0-0.5,0.3-1,0.8-1.1
				c8.7-2.5,17.4-3.9,26-3.9c0.5,0,0.9,0.4,1.1,0.9C220.5,85.8,221.6,97.6,221.4,101.1z"/>
			
				<linearGradient id="SVGID_00000017483973765718014640000007736142685866136962_" gradientUnits="userSpaceOnUse" x1="202.2429" y1="98.7855" x2="214.9644" y2="87.2206" gradientTransform="matrix(0.9977 -6.800000e-02 6.800000e-02 0.9977 -14.9216 21.3141)">
				<stop  offset="0" style="stop-color:#CEC4D6"/>
				<stop  offset="0.9961" style="stop-color:#CEC4D6;stop-opacity:0"/>
			</linearGradient>
			<path fill="url(#SVGID_00000017483973765718014640000007736142685866136962_)" d="M215.6,102.6c-6.4,1.2-12.9,2-19.5,2.5
				c-0.4,0-0.8-0.2-0.9-0.6c-1.6-5.2-2.7-10.5-3.4-15.9C195.2,94.5,202.8,103.9,215.6,102.6z"/>
			
				<linearGradient id="SVGID_00000003807965089866823410000014072100818013525888_" gradientUnits="userSpaceOnUse" x1="208.287" y1="93.7784" x2="206.6049" y2="82.4242" gradientTransform="matrix(0.9977 -6.800000e-02 6.800000e-02 0.9977 -14.9216 21.3141)">
				<stop  offset="0" style="stop-color:#34254C"/>
				<stop  offset="1" style="stop-color:#432A68"/>
			</linearGradient>
			<path fill="url(#SVGID_00000003807965089866823410000014072100818013525888_)" d="M195,86.9c0,0,1.4,9.2,2.9,14.5l1.9-0.3
				c0,0-1.6-9.2-2-14.9L195,86.9z"/>
			
				<linearGradient id="SVGID_00000076593100503112249110000009032665674542412439_" gradientUnits="userSpaceOnUse" x1="215.8457" y1="92.6582" x2="214.1637" y2="81.3041" gradientTransform="matrix(0.9977 -6.800000e-02 6.800000e-02 0.9977 -14.9216 21.3141)">
				<stop  offset="0" style="stop-color:#34254C"/>
				<stop  offset="1" style="stop-color:#432A68"/>
			</linearGradient>
			<path fill="url(#SVGID_00000076593100503112249110000009032665674542412439_)" d="M202.6,85.3c0,0,1.3,10,2.6,14.8l2.2-0.3
				c0,0-1.6-9.4-2-15L202.6,85.3z"/>
			
				<linearGradient id="SVGID_00000150085554899546413660000004454830554424851612_" gradientUnits="userSpaceOnUse" x1="210.9402" y1="89.2451" x2="210.1147" y2="80.5772" gradientTransform="matrix(0.9977 -6.800000e-02 6.800000e-02 0.9977 -14.9216 21.3141)">
				<stop  offset="0" style="stop-color:#A193AD"/>
				<stop  offset="0.9961" style="stop-color:#CEC4D6"/>
			</linearGradient>
			<path fill="url(#SVGID_00000150085554899546413660000004454830554424851612_)" d="M199.3,87.3c0,0,0.4,3.5,0.9,5.8l1.9-0.3
				l-0.9-5.8C201.1,87,200,87.1,199.3,87.3z"/>
			
				<linearGradient id="SVGID_00000100363048723303148480000005848213049203681935_" gradientUnits="userSpaceOnUse" x1="221.4708" y1="82.9014" x2="224.4144" y2="79.7474" gradientTransform="matrix(0.9977 -6.800000e-02 6.800000e-02 0.9977 -14.9216 21.3141)">
				<stop  offset="0" style="stop-color:#3492B7"/>
				<stop  offset="1" style="stop-color:#4CC8E5"/>
			</linearGradient>
			<path fill="url(#SVGID_00000100363048723303148480000005848213049203681935_)" d="M215.2,86.6c0.1,0.9-0.6,1.7-1.5,1.8
				c-0.9,0.1-1.7-0.6-1.8-1.5c-0.1-0.9,0.6-1.7,1.5-1.8C214.3,85,215.1,85.7,215.2,86.6z"/>
			
				<linearGradient id="SVGID_00000003791476153469936080000003369229438563217544_" gradientUnits="userSpaceOnUse" x1="222.4423" y1="87.8589" x2="225.7539" y2="87.8589" gradientTransform="matrix(0.9977 -6.800000e-02 6.800000e-02 0.9977 -14.9216 21.3141)">
				<stop  offset="0" style="stop-color:#D733DB"/>
				<stop  offset="1" style="stop-color:#F43EF9"/>
			</linearGradient>
			<path fill="url(#SVGID_00000003791476153469936080000003369229438563217544_)" d="M216.3,93.6c0.1,0.9-0.6,1.7-1.5,1.8
				c-0.9,0.1-1.7-0.6-1.8-1.5c-0.1-0.9,0.6-1.7,1.5-1.8C215.4,92,216.2,92.7,216.3,93.6z"/>
		</g>
		
			<linearGradient id="SVGID_00000008835187859427478560000011574090777411283128_" gradientUnits="userSpaceOnUse" x1="223.0184" y1="68.7282" x2="229.153" y2="67.1405" gradientTransform="matrix(0.9977 -6.800000e-02 6.800000e-02 0.9977 -14.9216 21.3141)">
			<stop  offset="0" style="stop-color:#1E45A5"/>
			<stop  offset="1" style="stop-color:#2265C6"/>
		</linearGradient>
		<path fill="url(#SVGID_00000008835187859427478560000011574090777411283128_)" d="M219.6,73.2c0.1,1.9-1.3,3.5-3.2,3.6
			c-1.9,0.1-3.5-1.3-3.6-3.2c-0.1-1.9,1.3-3.5,3.2-3.6C217.9,69.9,219.5,71.3,219.6,73.2z"/>
		
			<linearGradient id="SVGID_00000092449318677696305020000009550371553563514550_" gradientUnits="userSpaceOnUse" x1="197.2265" y1="72.9356" x2="208.7909" y2="70.0971" gradientTransform="matrix(0.9977 -6.800000e-02 6.800000e-02 0.9977 -14.9216 21.3141)">
			<stop  offset="0" style="stop-color:#34254C"/>
			<stop  offset="1" style="stop-color:#51397F"/>
		</linearGradient>
		<path fill="url(#SVGID_00000092449318677696305020000009550371553563514550_)" d="M190.7,81.6c1.5-0.4,5.3-1.1,9.4-2
			c0.9-0.2,0.9-0.9,0.8-1.3l-0.8-2.6c-0.1-0.4-0.5-0.7-0.9-0.6c-1.9,0.3-6.7,0.6-9.6,1.6c-0.4,0.1-0.8,0.2-0.6,1.4
			c0.1,0.7,0.4,1.9,0.7,3C189.9,81.4,190.3,81.7,190.7,81.6z"/>
		<g>
			
				<linearGradient id="SVGID_00000114791783373540111400000000902020957542089914_" gradientUnits="userSpaceOnUse" x1="199.7962" y1="58.1643" x2="230.3258" y2="58.1643" gradientTransform="matrix(0.9977 -6.800000e-02 6.800000e-02 0.9977 -14.9216 21.3141)">
				<stop  offset="0" style="stop-color:#34254C"/>
				<stop  offset="1" style="stop-color:#51397F"/>
			</linearGradient>
			<path fill="url(#SVGID_00000114791783373540111400000000902020957542089914_)" d="M188.4,65.9c0,0,0.7,2.5,1.6,3.7
				c0,0,16.2,7.4,28.7-7.3c0,0-0.9-3.4-1.9-4.9C216.8,57.3,209.3,69.8,188.4,65.9z"/>
			
				<linearGradient id="SVGID_00000174591884462994942790000012673777809133113788_" gradientUnits="userSpaceOnUse" x1="196.1367" y1="49.5597" x2="192.7723" y2="50.4008" gradientTransform="matrix(0.9977 -6.800000e-02 6.800000e-02 0.9977 -14.9216 21.3141)">
				<stop  offset="0" style="stop-color:#E1DAE5"/>
				<stop  offset="1" style="stop-color:#F7F4F9"/>
			</linearGradient>
			<path fill="url(#SVGID_00000174591884462994942790000012673777809133113788_)" d="M182.2,51c0,0-3.2,1.8-3.6,2.1
				c-1,0.7,2.9,11.5,4.3,11.6c0.8,0,3.7-1,3.7-1L182.2,51z"/>
			<path fill="#C8B8D3" d="M181.2,54.2c0,0.3-0.2,0.6-0.6,0.7c-0.3,0-0.6-0.2-0.7-0.6c0-0.3,0.2-0.6,0.6-0.7
				C180.9,53.6,181.2,53.9,181.2,54.2z"/>
			
				<linearGradient id="SVGID_00000011715876851193135520000016799913491689864072_" gradientUnits="userSpaceOnUse" x1="230.3402" y1="41.1998" x2="233.2908" y2="40.5909" gradientTransform="matrix(0.9977 -6.800000e-02 6.800000e-02 0.9977 -14.9216 21.3141)">
				<stop  offset="0" style="stop-color:#E1DAE5"/>
				<stop  offset="1" style="stop-color:#F7F4F9"/>
			</linearGradient>
			<path fill="url(#SVGID_00000011715876851193135520000016799913491689864072_)" d="M214.7,40.6c0,0,3.6-0.5,4.2-0.5
				c1.2,0,4.6,10.9,3.5,11.8c-0.7,0.5-3.6,1.4-3.6,1.4L214.7,40.6z"/>
			<path fill="#C8B8D3" d="M217.5,42.6c0.2,0.3,0.6,0.4,0.9,0.2c0.3-0.2,0.4-0.6,0.2-0.9c-0.2-0.3-0.6-0.4-0.9-0.2
				C217.4,41.9,217.3,42.3,217.5,42.6z"/>
			
				<linearGradient id="SVGID_00000101822170748790122650000009514303902572671146_" gradientUnits="userSpaceOnUse" x1="203.6737" y1="26.7664" x2="213.4509" y2="26.7664" gradientTransform="matrix(0.9977 -6.800000e-02 6.800000e-02 0.9977 -14.9216 21.3141)">
				<stop  offset="0" style="stop-color:#E1DAE5"/>
				<stop  offset="1" style="stop-color:#F7F4F9"/>
			</linearGradient>
			<path fill="url(#SVGID_00000101822170748790122650000009514303902572671146_)" d="M190.5,35.9l-0.4-1.3c2.4-1.9,5.4-2.8,9-2.8
				l0.7,1.7L190.5,35.9z"/>
			
				<linearGradient id="SVGID_00000163754942924397519250000006280855643931260849_" gradientUnits="userSpaceOnUse" x1="197.6743" y1="45.6653" x2="230.7908" y2="34.5214" gradientTransform="matrix(0.9977 -6.800000e-02 6.800000e-02 0.9977 -14.9216 21.3141)">
				<stop  offset="0" style="stop-color:#E1DAE5"/>
				<stop  offset="1" style="stop-color:#F7F4F9"/>
			</linearGradient>
			<path fill="url(#SVGID_00000163754942924397519250000006280855643931260849_)" d="M219.2,55.4l-7.9,2.5l-23.8,7.7
				c-9.2-10-7-26.2,5.1-31.2c0.6-0.2,1.1-0.4,1.7-0.6c0,0,0,0,0,0C207.7,29.6,220.3,40.2,219.2,55.4z"/>
			
				<linearGradient id="SVGID_00000138560571777107625130000016471672544669528501_" gradientUnits="userSpaceOnUse" x1="206.2165" y1="55.7181" x2="214.42" y2="26.6489" gradientTransform="matrix(0.9977 -6.800000e-02 6.800000e-02 0.9977 -14.9216 21.3141)">
				<stop  offset="0" style="stop-color:#C8B8D3"/>
				<stop  offset="1" style="stop-color:#C8B8D3;stop-opacity:0"/>
			</linearGradient>
			<path fill="url(#SVGID_00000138560571777107625130000016471672544669528501_)" d="M211.3,58l-23.8,7.7c-9.2-10-7-26.2,5.1-31.2
				c0.6-0.2,1.1-0.4,1.7-0.6c-8.1,3.4-8.9,8.8-1.6,6.6c7.3-2.2,12.5-0.8,12.5-0.8L211.3,58z"/>
			
				<linearGradient id="SVGID_00000023989539765638778870000009283452981253289638_" gradientUnits="userSpaceOnUse" x1="205.6456" y1="60.294" x2="222.9923" y2="55.9836" gradientTransform="matrix(0.9977 -6.800000e-02 6.800000e-02 0.9977 -14.9216 21.3141)">
				<stop  offset="0" style="stop-color:#E1DAE5"/>
				<stop  offset="1" style="stop-color:#F7F4F9"/>
			</linearGradient>
			<path fill="url(#SVGID_00000023989539765638778870000009283452981253289638_)" d="M219.2,55.4c0,0-2.8,10-14.3,12.7
				c-11.5,2.7-17.4-2.4-17.4-2.4L219.2,55.4z"/>
			
				<linearGradient id="SVGID_00000142897920374095624060000003588212151331043741_" gradientUnits="userSpaceOnUse" x1="195.3599" y1="49.3998" x2="235.415" y2="42.2508" gradientTransform="matrix(0.9977 -6.800000e-02 6.800000e-02 0.9977 -14.9216 21.3141)">
				<stop  offset="0" style="stop-color:#201D21"/>
				<stop  offset="1" style="stop-color:#524B56"/>
			</linearGradient>
			<path fill="url(#SVGID_00000142897920374095624060000003588212151331043741_)" d="M219.2,55.4c0,0-2.2,3.8-6.9,7
				c-5.1,3.5-13.2,6.4-24.8,3.2c-5.1-9.5-2.1-19.1,5-23.7c0.5-0.3,1.1-0.7,1.7-0.9C203,36.7,216.3,40.1,219.2,55.4z"/>
			
				<linearGradient id="SVGID_00000010280624117717667820000014537940118149208987_" gradientUnits="userSpaceOnUse" x1="190.0166" y1="48.3799" x2="208.7331" y2="47.3449" gradientTransform="matrix(0.9977 -6.800000e-02 6.800000e-02 0.9977 -14.9216 21.3141)">
				<stop  offset="0" style="stop-color:#111011"/>
				<stop  offset="1" style="stop-color:#111011;stop-opacity:0"/>
			</linearGradient>
			<path fill="url(#SVGID_00000010280624117717667820000014537940118149208987_)" d="M212.3,62.4c-5.1,3.5-13.2,6.4-24.8,3.2
				c-5.1-9.5-2.1-19.1,5-23.7c-0.9,2.2-2.1,6.7-1.1,13.6C192.9,65.9,200,69,212.3,62.4C212.3,62.4,212.3,62.4,212.3,62.4z"/>
			
				<linearGradient id="SVGID_00000096043210528260813780000010005593311778634143_" gradientUnits="userSpaceOnUse" x1="217.5397" y1="32.2895" x2="222.7961" y2="47.7433" gradientTransform="matrix(0.9977 -6.800000e-02 6.800000e-02 0.9977 -14.9216 21.3141)">
				<stop  offset="0" style="stop-color:#EDE7F2"/>
				<stop  offset="1" style="stop-color:#EDE7F2;stop-opacity:0"/>
			</linearGradient>
			<path fill="url(#SVGID_00000096043210528260813780000010005593311778634143_)" d="M199.1,41c0,0,9.9-1.7,15.4,7.4
				c0.4,0.7,0.3,1.7-0.4,2.2l0,0c-0.8,0.6-1.9,0.3-2.3-0.5C210.2,47.4,206.5,42.5,199.1,41z"/>
			
				<linearGradient id="SVGID_00000050627887538241853300000013371473896787082123_" gradientUnits="userSpaceOnUse" x1="224.9046" y1="44.2583" x2="230.1612" y2="51.5124" gradientTransform="matrix(0.9977 -6.800000e-02 6.800000e-02 0.9977 -14.9216 21.3141)">
				<stop  offset="0" style="stop-color:#EDE7F2"/>
				<stop  offset="1" style="stop-color:#EDE7F2;stop-opacity:0"/>
			</linearGradient>
			<path fill="url(#SVGID_00000050627887538241853300000013371473896787082123_)" d="M216.1,52.6c0.3,0.6,0.1,1.4-0.5,1.7
				c-0.6,0.3-1.4,0.1-1.7-0.5c-0.3-0.6-0.1-1.4,0.5-1.7C215,51.8,215.7,52,216.1,52.6z"/>
		</g>
		<g>
			<path fill="#2D2244" d="M236.5,126.2c-0.5,1-1.3,1.5-2.1,2.5c0,0,0,0,0,0c-3.2,3.9-5.6,8.6-6.7,10.8c-0.9-1.2-1.6-2.4-2.1-3.2
				l0,0c0.3-1.4,1.2-4.1,3.1-7.2C232.8,128.3,236.4,126.3,236.5,126.2z"/>
			
				<linearGradient id="SVGID_00000180337596124521811930000000696240286169513134_" gradientUnits="userSpaceOnUse" x1="235.7598" y1="118.7139" x2="256.6071" y2="118.7139" gradientTransform="matrix(0.9977 -6.800000e-02 6.800000e-02 0.9977 -14.9216 21.3141)">
				<stop  offset="0" style="stop-color:#34254C"/>
				<stop  offset="1" style="stop-color:#51397F"/>
			</linearGradient>
			<path fill="url(#SVGID_00000180337596124521811930000000696240286169513134_)" d="M249,119.9c-2.1,0.3-5.6,1.3-9.6,4
				c-1.8,1.2-3.5,2.9-5,4.8c0.6-0.8,1.2-1.1,1.8-2.1c-0.1,0.1-3.4,1.7-7.4,2.5c0.8-1.3,1.8-2.7,3-4c5.4-6.2,14.6-8,14.6-8
				C247,117.5,248,118.5,249,119.9z"/>
			<path fill="#2D2244" d="M194.7,142.1c-0.1,0-0.2,0.1-0.2,0.1c-0.2,1.3-0.5,2.5-0.8,3.6c-0.8-1.2-2-2.8-3.8-4.5
				c0.2-0.2,0.5-0.4,0.7-0.5c0.6-0.4,1.2-0.9,1.8-1.5C193.4,140.5,194.2,141.5,194.7,142.1z"/>
			
				<linearGradient id="SVGID_00000147213628405768808420000007403121647622600873_" gradientUnits="userSpaceOnUse" x1="196.0172" y1="132.9683" x2="174.4927" y2="119.486" gradientTransform="matrix(0.9977 -6.800000e-02 6.800000e-02 0.9977 -14.9216 21.3141)">
				<stop  offset="0" style="stop-color:#34254C"/>
				<stop  offset="1" style="stop-color:#51397F"/>
			</linearGradient>
			<path fill="url(#SVGID_00000147213628405768808420000007403121647622600873_)" d="M192.4,139.3c-0.6,0.6-1.1,1-1.8,1.5
				c-0.2,0.2-0.5,0.3-0.7,0.5c-1.6-1.5-3.6-3-6.2-4.5c-6.6-3.7-12.4-3.2-15.4-2.5c0.2-0.7,0.5-1.3,0.8-1.9c0.3-0.6,0.7-1.1,1-1.6
				l0,0c0,0,0,0,0,0c0,0,0,0,0-0.1c0,0,0,0,0,0c0,0,0,0,0,0c0,0,0,0,0,0c0,0,0,0,0,0c0,0,0.1-0.1,0.1-0.1c0,0,0.1-0.1,0.1-0.1
				c0.1-0.1,0.2-0.2,0.3-0.4c0.5-0.1,1.2-0.2,1.9-0.2c2.7-0.2,6.5,0,10.2,1.7C186.6,133.5,190.1,136.8,192.4,139.3z"/>
			<path fill="#2D2244" d="M241.3,91.3c-0.4,0.2-0.8,0.4-1.3,0.6c-0.3,0.1-0.7,0.2-1,0.3c-1.1-1.5-2-3-2.7-4.5
				c0.9-0.1,1.7-0.3,2.5-0.5C239.7,89.1,240.6,90.4,241.3,91.3z"/>
			
				<linearGradient id="SVGID_00000118389087986277433780000000733569996052586658_" gradientUnits="userSpaceOnUse" x1="247.3838" y1="84.9575" x2="245.176" y2="65.5605" gradientTransform="matrix(0.9977 -6.800000e-02 6.800000e-02 0.9977 -14.9216 21.3141)">
				<stop  offset="0" style="stop-color:#34254C"/>
				<stop  offset="1" style="stop-color:#51397F"/>
			</linearGradient>
			<path fill="url(#SVGID_00000118389087986277433780000000733569996052586658_)" d="M238.8,87.2c-0.8,0.3-1.6,0.4-2.5,0.5
				c-3.3-7-2.8-13.9-2.2-17.3l0,0c0.6-0.5,1.2-0.8,1.8-1.1c-0.6,3.4-0.4,9.7,1.7,15.1C238,85.5,238.4,86.4,238.8,87.2z"/>
			<path fill="#2D2244" d="M176.5,98.5c-0.5,2.4-1.2,4.1-1.8,5.2c-1.3,0.3-2.6,0.3-3.9,0.2c1.3-1.5,2.3-3.1,3-4.7
				C174.9,99.1,175.8,98.8,176.5,98.5z"/>
			
				<linearGradient id="SVGID_00000107559529209146108520000015539464956988535973_" gradientUnits="userSpaceOnUse" x1="182.9944" y1="82.9688" x2="186.6694" y2="82.9688" gradientTransform="matrix(0.9977 -6.800000e-02 6.800000e-02 0.9977 -14.9216 21.3141)">
				<stop  offset="0" style="stop-color:#34254C"/>
				<stop  offset="1" style="stop-color:#51397F"/>
			</linearGradient>
			<path fill="url(#SVGID_00000107559529209146108520000015539464956988535973_)" d="M176.5,98.5c-0.7,0.3-1.7,0.5-2.7,0.6
				c2.3-5.6,1.3-11.6,0.7-13.9c0.4,0.4,0.6,0.7,0.6,0.8c0,0,0,0,0,0c0,0,0,0,0,0c0,0,0,0,0,0l0,0c0.1-0.8,0.3-1.5,0.5-1.9
				c0-0.1,0.1-0.1,0.1-0.2C177.3,90.3,177.2,95.1,176.5,98.5z"/>
		</g>
		
			<linearGradient id="SVGID_00000041996511950928253480000011372190345109496755_" gradientUnits="userSpaceOnUse" x1="197.4432" y1="72.5453" x2="209.0076" y2="69.7068" gradientTransform="matrix(0.9977 -6.800000e-02 6.800000e-02 0.9977 -14.9216 21.3141)">
			<stop  offset="0" style="stop-color:#A193AD"/>
			<stop  offset="0.9961" style="stop-color:#CEC4D6"/>
		</linearGradient>
		<path fill="url(#SVGID_00000041996511950928253480000011372190345109496755_)" d="M190.8,80.9c1.5-0.4,5.5-1.3,9.4-2
			c0.4-0.1,0.7-0.5,0.6-0.9l-0.6-3c-0.1-0.4-0.5-0.7-0.9-0.6c-1.9,0.3-6.7,1.2-9.7,2.1c-0.4,0.1-0.6,0.5-0.5,0.9
			c0.1,0.7,0.4,1.9,0.7,3C190,80.8,190.4,81,190.8,80.9z"/>
		<g>
			
				<linearGradient id="SVGID_00000046315900060089869330000000161608117491614352_" gradientUnits="userSpaceOnUse" x1="180.881" y1="83.5948" x2="162.2724" y2="65.144" gradientTransform="matrix(0.9977 -6.800000e-02 6.800000e-02 0.9977 -14.9216 21.3141)">
				<stop  offset="0" style="stop-color:#E1DAE5"/>
				<stop  offset="1" style="stop-color:#F7F4F9"/>
			</linearGradient>
			<path fill="url(#SVGID_00000046315900060089869330000000161608117491614352_)" d="M165.7,97.6c-1.6,0.6-3.1,0.9-4.5,0.9
				c-3.2,0-5.3-1.1-5.3-1.1s-0.1,0.3-0.6,0.6c0,0,0,0,0,0c-0.6,0.3-1.8,0.7-4.1,0.4c-4-0.5-5.4-2.6-5.3-4.2c0-0.5,0.3-0.8,0.7-1
				c0,0,0,0,0,0c1-0.6,2.8-0.8,3.6-0.8c1.1-0.1,1.4-0.4,0.9-1.2c0,0-0.1-0.1-0.1-0.1c-0.7-0.7-2.9-0.7-4.1-1.3
				c-1.3-0.7-2.1-2.4-2-4.1c0-0.9,0.8-1.3,1.8-1.5c1.1-0.2,2.4,0,3.5,0.5c2.1,1,2.9,0.6,3-0.5c0.1-0.8-1.6-1.9-3.1-2.9
				c-0.6-0.4-1.2-0.8-1.6-1.2c-1.5-1.3-0.6-4.1,2.1-4.6c0.3-0.1,0.5,0,0.8,0l0,0c2.1,0.4,3,4,4.2,3.5c1.4-0.6,0.4-1.8-1.5-3.7
				c-0.2-0.3-0.5-0.5-0.7-0.8c-1.6-1.9-3-4.6-1.2-5.9c0.4-0.3,0.9-0.4,1.5-0.3c2.3,0.4,5.6,3.9,7.6,8.2c0.7,1.6,1.3,2.5,1.7,3.1
				c0.7,1,1.1,0.9,1.2,0.7c0.1-0.1,0.1-0.1,0.1-0.1c0.5-0.7,0.8-5.5,1.1-8.5c0-0.5,0.1-1,0.2-1.4c0.4-2.3,1.2-4.1,2.6-4.5
				c0.3-0.1,0.5-0.1,0.7-0.1c1.2,0,1.9,1,2.2,3.4c0.1,0.6,0.1,1.2,0.1,1.7c-0.1,2-0.8,3.9-0.8,6.2c0,3,1.8,6.2,2.4,10.1
				C172.9,90.8,171.1,95.5,165.7,97.6z"/>
			
				<linearGradient id="SVGID_00000018217499873644305050000007001426762790195642_" gradientUnits="userSpaceOnUse" x1="162.2455" y1="61.116" x2="167.444" y2="61.116" gradientTransform="matrix(0.9977 -6.800000e-02 6.800000e-02 0.9977 -14.9216 21.3141)">
				<stop  offset="0" style="stop-color:#E1DAE5"/>
				<stop  offset="1" style="stop-color:#F7F4F9"/>
			</linearGradient>
			<path fill="url(#SVGID_00000018217499873644305050000007001426762790195642_)" d="M156.4,72.5c-0.2,1.7-2,1.8-3.3,1.7
				c-0.2-0.2-0.4-0.4-0.5-0.7c-1.4-1.8-2.3-4.1-0.7-5.3c0.4-0.3,0.9-0.4,1.5-0.3c0.5,0.6,1.5,1.4,2.2,2.3
				C156.1,71,156.5,71.7,156.4,72.5z"/>
			
				<linearGradient id="SVGID_00000011025341017491567490000016669987831385153200_" gradientUnits="userSpaceOnUse" x1="158.2677" y1="67.9902" x2="163.8373" y2="67.9902" gradientTransform="matrix(0.9977 -6.800000e-02 6.800000e-02 0.9977 -14.9216 21.3141)">
				<stop  offset="0" style="stop-color:#E1DAE5"/>
				<stop  offset="1" style="stop-color:#F7F4F9"/>
			</linearGradient>
			<path fill="url(#SVGID_00000011025341017491567490000016669987831385153200_)" d="M153.2,78.9c-0.3,1-1.3,2.6-3.2,2.2
				c-0.5-0.4-1-0.7-1.4-1c-0.1-0.1-0.2-0.1-0.2-0.2c-1.5-1.3-0.6-4.1,2.1-4.6c0.3-0.1,0.5,0,0.8,0l0,0c0.4,0.4,1.1,1.2,1.5,2
				c0,0,0,0,0,0C153.1,77.8,153.3,78.4,153.2,78.9z"/>
			
				<linearGradient id="SVGID_00000140708938763733873920000016021530679811514752_" gradientUnits="userSpaceOnUse" x1="154.9234" y1="77.1632" x2="163.0392" y2="77.1632" gradientTransform="matrix(0.9977 -6.800000e-02 6.800000e-02 0.9977 -14.9216 21.3141)">
				<stop  offset="0" style="stop-color:#E1DAE5"/>
				<stop  offset="1" style="stop-color:#F7F4F9"/>
			</linearGradient>
			<path fill="url(#SVGID_00000140708938763733873920000016021530679811514752_)" d="M151.8,91c-0.2,0-0.5,0-0.9-0.1
				c-0.5-0.1-1-0.2-1.5-0.4c-1-0.3-1.8-0.5-2.6-1c-1.3-0.7-2.1-2.4-2-4.1c0-0.9,0.8-1.3,1.8-1.5c0.7,0.6,2,1.6,2.9,2
				c0.3,0.1,0.6,0.2,0.9,0.4c1.2,0.6,2.4,1.3,2.6,2.1C153.2,89.3,153.2,90.7,151.8,91z"/>
			
				<linearGradient id="SVGID_00000001638260288559664050000001686375558018651554_" gradientUnits="userSpaceOnUse" x1="155.4078" y1="85.3893" x2="165.3797" y2="85.3893" gradientTransform="matrix(0.9977 -6.800000e-02 6.800000e-02 0.9977 -14.9216 21.3141)">
				<stop  offset="0" style="stop-color:#E1DAE5"/>
				<stop  offset="1" style="stop-color:#F7F4F9"/>
			</linearGradient>
			<path fill="url(#SVGID_00000001638260288559664050000001686375558018651554_)" d="M155.2,97.9C155.2,97.9,155.2,97.9,155.2,97.9
				c-0.6,0.3-1.6,0.6-3.5,0.5c-0.2,0-0.4,0-0.6-0.1c-4-0.5-5.4-2.6-5.3-4.2c0-0.5,0.3-0.8,0.7-1c0,0,0,0,0,0c0.1,0,1.7-0.6,5.5,0.9
				c0.1,0,0.2,0.1,0.3,0.1C155.9,95.7,156.8,96.8,155.2,97.9z"/>
			
				<linearGradient id="SVGID_00000038408825052502537570000013318903740146876817_" gradientUnits="userSpaceOnUse" x1="174.6109" y1="64.9433" x2="170.353" y2="80.713" gradientTransform="matrix(0.9977 -6.800000e-02 6.800000e-02 0.9977 -14.9216 21.3141)">
				<stop  offset="0" style="stop-color:#C8B8D3"/>
				<stop  offset="1" style="stop-color:#C8B8D3;stop-opacity:0.3"/>
			</linearGradient>
			<path fill="url(#SVGID_00000038408825052502537570000013318903740146876817_)" d="M161.3,90.4c-0.1-0.2-3.1-6,1.3-11.1
				c0.7,1,1.1,0.9,1.2,0.7l0.1,0.2C163.9,80.3,159.8,86.2,161.3,90.4z"/>
			
				<linearGradient id="SVGID_00000132070590182848682560000015289147406485828238_" gradientUnits="userSpaceOnUse" x1="186.8209" y1="80.9004" x2="174.2044" y2="71.8586" gradientTransform="matrix(0.9977 -6.800000e-02 6.800000e-02 0.9977 -14.9216 21.3141)">
				<stop  offset="0" style="stop-color:#C8B8D3"/>
				<stop  offset="1" style="stop-color:#C8B8D3;stop-opacity:0.3"/>
			</linearGradient>
			<path fill="url(#SVGID_00000132070590182848682560000015289147406485828238_)" d="M165.7,97.6c-1.6,0.6-3.1,0.9-4.5,0.9
				c9.7-2.2,8.5-11.3,7.3-14.1c-1.3-3.2-1.6-7.8,0.1-12.5c1.3-3.5,0.4-5.6-0.1-6.4c1.2,0,1.9,1,2.2,3.4c0.1,0.6,0.1,1.2,0.1,1.7
				c-0.1,2-0.8,3.9-0.8,6.2c0,3,1.8,6.2,2.4,10.1C172.9,90.8,171.1,95.5,165.7,97.6z"/>
			
				<linearGradient id="SVGID_00000145758774308915505020000009141901037381807023_" gradientUnits="userSpaceOnUse" x1="178.7874" y1="62.988" x2="179.8387" y2="57.2057" gradientTransform="matrix(0.9977 -6.800000e-02 6.800000e-02 0.9977 -14.9216 21.3141)">
				<stop  offset="0" style="stop-color:#34254C"/>
				<stop  offset="1" style="stop-color:#51397F"/>
			</linearGradient>
			<path fill="url(#SVGID_00000145758774308915505020000009141901037381807023_)" d="M170.7,70.5c-2.4,1.1-4.5,0.2-5.5-0.5
				c0.4-2.3,1.2-4.1,2.6-4.5c1.7-0.4,2.6,0.5,2.9,3.3C170.7,69.4,170.7,70,170.7,70.5z"/>
			
				<linearGradient id="SVGID_00000035501137877210626250000001269934973570250880_" gradientUnits="userSpaceOnUse" x1="163.5618" y1="62.3943" x2="167.444" y2="62.3943" gradientTransform="matrix(0.9977 -6.800000e-02 6.800000e-02 0.9977 -14.9216 21.3141)">
				<stop  offset="0" style="stop-color:#34254C"/>
				<stop  offset="1" style="stop-color:#51397F"/>
			</linearGradient>
			<path fill="url(#SVGID_00000035501137877210626250000001269934973570250880_)" d="M156.4,72.5c-0.2,1.7-3.4,2.5-3.8,1.1
				c0.3-3.1,2.1-3.4,3-3.2C156.1,71,156.5,71.7,156.4,72.5z"/>
			
				<linearGradient id="SVGID_00000136376931347146668030000012502018656605064861_" gradientUnits="userSpaceOnUse" x1="158.9807" y1="68.6008" x2="163.7901" y2="68.6008" gradientTransform="matrix(0.9977 -6.800000e-02 6.800000e-02 0.9977 -14.9216 21.3141)">
				<stop  offset="0" style="stop-color:#34254C"/>
				<stop  offset="1" style="stop-color:#51397F"/>
			</linearGradient>
			<path fill="url(#SVGID_00000136376931347146668030000012502018656605064861_)" d="M153.2,78.9c-0.1,2.5-3.7,2.9-4.6,1.1
				c-0.3-0.8-0.3-1.7,0.4-2.6c1.6-2,3.7-0.3,3.8-0.2c0,0,0,0,0,0C153.1,77.8,153.2,78.4,153.2,78.9z"/>
			
				<linearGradient id="SVGID_00000112633427529929437990000001266641210127702179_" gradientUnits="userSpaceOnUse" x1="159.1395" y1="78.4578" x2="163.0392" y2="78.4578" gradientTransform="matrix(0.9977 -6.800000e-02 6.800000e-02 0.9977 -14.9216 21.3141)">
				<stop  offset="0" style="stop-color:#34254C"/>
				<stop  offset="1" style="stop-color:#51397F"/>
			</linearGradient>
			<path fill="url(#SVGID_00000112633427529929437990000001266641210127702179_)" d="M151.8,91c-0.2,0-0.5,0-0.9-0.1
				c-0.5-0.1-1-0.2-1.5-0.4c-0.6-2.2,0.3-3.6,1-4.3c1.2,0.6,2.4,1.3,2.6,2.1C153.2,89.3,153.2,90.7,151.8,91z"/>
			
				<linearGradient id="SVGID_00000134964932134051313320000013708724593268273037_" gradientUnits="userSpaceOnUse" x1="160.6194" y1="86.1706" x2="165.3797" y2="86.1706" gradientTransform="matrix(0.9977 -6.800000e-02 6.800000e-02 0.9977 -14.9216 21.3141)">
				<stop  offset="0" style="stop-color:#34254C"/>
				<stop  offset="1" style="stop-color:#51397F"/>
			</linearGradient>
			<path fill="url(#SVGID_00000134964932134051313320000013708724593268273037_)" d="M155.2,97.9C155.2,97.9,155.2,97.9,155.2,97.9
				c-0.6,0.3-1.6,0.6-3.5,0.5c-0.4-0.6-0.7-1.6-0.4-2.6c0.2-0.9,0.7-1.4,1-1.6C155.9,95.7,156.8,96.8,155.2,97.9z"/>
		</g>
		<g>
			
				<linearGradient id="SVGID_00000157291065807103101440000008480630204588608424_" gradientUnits="userSpaceOnUse" x1="-333.3369" y1="94.0446" x2="-351.9462" y2="75.593" gradientTransform="matrix(-0.9929 0.1187 0.1187 0.9929 -103.6478 28.808)">
				<stop  offset="0" style="stop-color:#E1DAE5"/>
				<stop  offset="1" style="stop-color:#F7F4F9"/>
			</linearGradient>
			<path fill="url(#SVGID_00000157291065807103101440000008480630204588608424_)" d="M244.9,86.7c1.7,0.3,3.3,0.3,4.6,0
				c3.1-0.6,5-2.1,5-2.1s0.2,0.3,0.7,0.4c0,0,0,0,0,0c0.7,0.2,1.9,0.3,4.1-0.4c3.8-1.3,4.8-3.6,4.5-5.1c-0.1-0.4-0.4-0.7-0.9-0.9
				c0,0,0,0,0,0c-1.1-0.4-2.9-0.2-3.7-0.1c-1.1,0.1-1.4-0.1-1.1-1c0,0,0-0.1,0.1-0.1c0.5-0.8,2.7-1.2,3.8-2.1
				c1.2-0.9,1.6-2.7,1.2-4.4c-0.2-0.8-1-1.2-2.1-1.1c-1.1,0-2.4,0.5-3.3,1.1c-1.9,1.3-2.7,1.1-3,0c-0.2-0.8,1.2-2.1,2.5-3.4
				c0.5-0.5,1-1,1.4-1.5c1.2-1.6-0.2-4.1-2.9-4.1c-0.3,0-0.5,0.1-0.8,0.1l0,0c-2,0.8-2.2,4.4-3.5,4.2c-1.5-0.3-0.7-1.7,0.8-3.9
				c0.2-0.3,0.4-0.6,0.6-0.9c1.2-2.2,2.1-5,0.1-6c-0.5-0.2-1-0.2-1.5,0c-2.2,0.8-4.8,4.9-5.9,9.5c-0.4,1.7-0.8,2.7-1.1,3.4
				c-0.5,1.1-0.9,1.1-1,1c-0.1,0-0.1-0.1-0.1-0.1c-0.6-0.6-1.8-5.3-2.6-8.2c-0.1-0.5-0.3-0.9-0.4-1.4c-0.8-2.2-1.9-3.8-3.4-3.9
				c-0.3,0-0.5,0-0.7,0c-1.2,0.2-1.7,1.3-1.5,3.7c0,0.6,0.1,1.2,0.3,1.7c0.5,2,1.5,3.7,1.9,6c0.5,3-0.7,6.4-0.5,10.4
				C236.5,81.4,239.2,85.6,244.9,86.7z"/>
			
				<linearGradient id="SVGID_00000168100241329770071280000018172542269434743968_" gradientUnits="userSpaceOnUse" x1="-351.9732" y1="71.5648" x2="-346.7744" y2="71.5648" gradientTransform="matrix(-0.9929 0.1187 0.1187 0.9929 -103.6478 28.808)">
				<stop  offset="0" style="stop-color:#E1DAE5"/>
				<stop  offset="1" style="stop-color:#F7F4F9"/>
			</linearGradient>
			<path fill="url(#SVGID_00000168100241329770071280000018172542269434743968_)" d="M249.4,60.3c0.5,1.6,2.3,1.4,3.5,1.1
				c0.1-0.2,0.3-0.5,0.4-0.7c1-2.1,1.5-4.4-0.3-5.3c-0.5-0.2-1-0.2-1.5,0c-0.4,0.7-1.2,1.6-1.8,2.7
				C249.3,58.7,249.1,59.5,249.4,60.3z"/>
			
				<linearGradient id="SVGID_00000080173961224167016990000002054865038894239137_" gradientUnits="userSpaceOnUse" x1="-355.9511" y1="78.4392" x2="-350.3813" y2="78.4392" gradientTransform="matrix(-0.9929 0.1187 0.1187 0.9929 -103.6478 28.808)">
				<stop  offset="0" style="stop-color:#E1DAE5"/>
				<stop  offset="1" style="stop-color:#F7F4F9"/>
			</linearGradient>
			<path fill="url(#SVGID_00000080173961224167016990000002054865038894239137_)" d="M253.7,66c0.5,1,1.8,2.3,3.5,1.5
				c0.4-0.4,0.9-0.9,1.2-1.3c0.1-0.1,0.1-0.2,0.2-0.2c1.2-1.6-0.2-4.1-2.9-4.1c-0.3,0-0.5,0.1-0.8,0.1l0,0c-0.3,0.5-0.8,1.4-1.1,2.2
				c0,0,0,0,0,0C253.6,64.9,253.5,65.5,253.7,66z"/>
			
				<linearGradient id="SVGID_00000151515251982890004240000017592046710653640373_" gradientUnits="userSpaceOnUse" x1="-359.2956" y1="87.6127" x2="-351.1794" y2="87.6127" gradientTransform="matrix(-0.9929 0.1187 0.1187 0.9929 -103.6478 28.808)">
				<stop  offset="0" style="stop-color:#E1DAE5"/>
				<stop  offset="1" style="stop-color:#F7F4F9"/>
			</linearGradient>
			<path fill="url(#SVGID_00000151515251982890004240000017592046710653640373_)" d="M257.3,77.6c0.2,0,0.5-0.1,0.9-0.2
				c0.5-0.2,1-0.4,1.4-0.6c0.9-0.4,1.7-0.9,2.4-1.5c1.2-0.9,1.6-2.7,1.2-4.4c-0.2-0.8-1-1.2-2.1-1.1c-0.6,0.7-1.6,1.9-2.5,2.5
				c-0.3,0.2-0.5,0.3-0.8,0.5c-1.1,0.8-2.1,1.8-2.2,2.5C255.6,76.2,255.9,77.6,257.3,77.6z"/>
			
				<linearGradient id="SVGID_00000031903699951404886720000005442762869190336386_" gradientUnits="userSpaceOnUse" x1="-358.8112" y1="95.8391" x2="-348.8389" y2="95.8391" gradientTransform="matrix(-0.9929 0.1187 0.1187 0.9929 -103.6478 28.808)">
				<stop  offset="0" style="stop-color:#E1DAE5"/>
				<stop  offset="1" style="stop-color:#F7F4F9"/>
			</linearGradient>
			<path fill="url(#SVGID_00000031903699951404886720000005442762869190336386_)" d="M255.2,85C255.2,85,255.2,85,255.2,85
				c0.6,0.2,1.7,0.3,3.5-0.2c0.2,0,0.4-0.1,0.5-0.2c3.8-1.3,4.8-3.6,4.5-5.1c-0.1-0.4-0.4-0.7-0.9-0.9c0,0,0,0,0,0
				c-0.1,0-1.8-0.3-5.2,1.9c-0.1,0.1-0.2,0.1-0.3,0.2C254.1,83,253.4,84.2,255.2,85z"/>
			
				<linearGradient id="SVGID_00000145752393602323159170000014483037908274519713_" gradientUnits="userSpaceOnUse" x1="-339.6072" y1="75.3921" x2="-343.8653" y2="91.1626" gradientTransform="matrix(-0.9929 0.1187 0.1187 0.9929 -103.6478 28.808)">
				<stop  offset="0" style="stop-color:#C8B8D3"/>
				<stop  offset="1" style="stop-color:#C8B8D3;stop-opacity:0.3"/>
			</linearGradient>
			<path fill="url(#SVGID_00000145752393602323159170000014483037908274519713_)" d="M247.9,78.8c0.1-0.2,1.9-6.5-3.4-10.6
				c-0.5,1.1-0.9,1.1-1,1l-0.1,0.2C243.4,69.3,248.6,74.4,247.9,78.8z"/>
			
				<linearGradient id="SVGID_00000089548158593673866200000014419965634824600745_" gradientUnits="userSpaceOnUse" x1="-327.3967" y1="91.35" x2="-340.0138" y2="82.3078" gradientTransform="matrix(-0.9929 0.1187 0.1187 0.9929 -103.6478 28.808)">
				<stop  offset="0" style="stop-color:#C8B8D3"/>
				<stop  offset="1" style="stop-color:#C8B8D3;stop-opacity:0.3"/>
			</linearGradient>
			<path fill="url(#SVGID_00000089548158593673866200000014419965634824600745_)" d="M244.9,86.7c1.7,0.3,3.3,0.3,4.6,0
				c-9.9-0.4-10.4-9.5-9.8-12.5c0.7-3.4,0.2-8-2.4-12.3c-1.9-3.2-1.4-5.4-1.1-6.4c-1.2,0.2-1.7,1.3-1.5,3.7c0,0.6,0.1,1.2,0.3,1.7
				c0.5,2,1.5,3.7,1.9,6c0.5,3-0.7,6.4-0.5,10.4C236.5,81.4,239.2,85.6,244.9,86.7z"/>
			
				<linearGradient id="SVGID_00000034793641720763289080000018018822819255925180_" gradientUnits="userSpaceOnUse" x1="-335.4306" y1="73.4368" x2="-334.3792" y2="67.6543" gradientTransform="matrix(-0.9929 0.1187 0.1187 0.9929 -103.6478 28.808)">
				<stop  offset="0" style="stop-color:#34254C"/>
				<stop  offset="1" style="stop-color:#51397F"/>
			</linearGradient>
			<path fill="url(#SVGID_00000034793641720763289080000018018822819255925180_)" d="M234.9,61c2.5,0.7,4.4-0.7,5.4-1.6
				c-0.8-2.2-1.9-3.8-3.4-3.9c-1.8-0.1-2.4,0.9-2.3,3.8C234.7,59.9,234.8,60.5,234.9,61z"/>
			
				<linearGradient id="SVGID_00000171690605146830569410000009065932090283070866_" gradientUnits="userSpaceOnUse" x1="-350.6568" y1="72.8431" x2="-346.7744" y2="72.8431" gradientTransform="matrix(-0.9929 0.1187 0.1187 0.9929 -103.6478 28.808)">
				<stop  offset="0" style="stop-color:#34254C"/>
				<stop  offset="1" style="stop-color:#51397F"/>
			</linearGradient>
			<path fill="url(#SVGID_00000171690605146830569410000009065932090283070866_)" d="M249.4,60.3c0.5,1.6,3.8,1.8,3.9,0.3
				c-0.9-3-2.7-2.9-3.6-2.6C249.3,58.7,249.1,59.5,249.4,60.3z"/>
			
				<linearGradient id="SVGID_00000036230967440499181040000010006753621419009417_" gradientUnits="userSpaceOnUse" x1="-355.2381" y1="79.0499" x2="-350.4285" y2="79.0499" gradientTransform="matrix(-0.9929 0.1187 0.1187 0.9929 -103.6478 28.808)">
				<stop  offset="0" style="stop-color:#34254C"/>
				<stop  offset="1" style="stop-color:#51397F"/>
			</linearGradient>
			<path fill="url(#SVGID_00000036230967440499181040000010006753621419009417_)" d="M253.7,66c0.5,2.5,4.1,2.1,4.7,0.3
				c0.1-0.8,0-1.7-0.9-2.5c-1.9-1.6-3.7,0.4-3.7,0.5c0,0,0,0,0,0C253.6,64.9,253.6,65.5,253.7,66z"/>
			
				<linearGradient id="SVGID_00000057835264464318427840000006693716561913685890_" gradientUnits="userSpaceOnUse" x1="-355.0793" y1="88.9073" x2="-351.1794" y2="88.9073" gradientTransform="matrix(-0.9929 0.1187 0.1187 0.9929 -103.6478 28.808)">
				<stop  offset="0" style="stop-color:#34254C"/>
				<stop  offset="1" style="stop-color:#51397F"/>
			</linearGradient>
			<path fill="url(#SVGID_00000057835264464318427840000006693716561913685890_)" d="M257.3,77.6c0.2,0,0.5-0.1,0.9-0.2
				c0.5-0.2,1-0.4,1.4-0.6c0.2-2.2-1-3.5-1.8-4c-1.1,0.8-2.1,1.8-2.2,2.5C255.6,76.2,255.9,77.6,257.3,77.6z"/>
			
				<linearGradient id="SVGID_00000049921761655992359870000000582687282190702228_" gradientUnits="userSpaceOnUse" x1="-353.5993" y1="96.6204" x2="-348.8389" y2="96.6204" gradientTransform="matrix(-0.9929 0.1187 0.1187 0.9929 -103.6478 28.808)">
				<stop  offset="0" style="stop-color:#34254C"/>
				<stop  offset="1" style="stop-color:#51397F"/>
			</linearGradient>
			<path fill="url(#SVGID_00000049921761655992359870000000582687282190702228_)" d="M255.2,85C255.2,85,255.2,85,255.2,85
				c0.6,0.2,1.7,0.3,3.5-0.2c0.3-0.7,0.4-1.7-0.1-2.6c-0.4-0.9-0.9-1.3-1.3-1.4C254.1,83,253.4,84.2,255.2,85z"/>
		</g>
		<g>
			<path fill="#ACA5B5" d="M236.7,174.2c0,0-1.4-4.5-1.1-6.9c0.3-2.4,14-35.7,31.9-35.7L236.7,174.2z"/>
			
				<linearGradient id="SVGID_00000183242495714872878310000003426526631889549214_" gradientUnits="userSpaceOnUse" x1="240.6064" y1="155.2446" x2="277.244" y2="155.2446" gradientTransform="matrix(0.9977 -6.800000e-02 6.800000e-02 0.9977 -14.9216 21.3141)">
				<stop  offset="0" style="stop-color:#E1DAE5"/>
				<stop  offset="1" style="stop-color:#F7F4F9"/>
			</linearGradient>
			<path fill="url(#SVGID_00000183242495714872878310000003426526631889549214_)" d="M240.9,185.7c0,0-4-3.2-4.4-13.7
				c-0.4-10.5,21-47,34-39.4L240.9,185.7z"/>
			
				<linearGradient id="SVGID_00000019661741406489148510000012157985785702163390_" gradientUnits="userSpaceOnUse" x1="239.614" y1="179.7318" x2="282.1898" y2="144.252" gradientTransform="matrix(0.9977 -6.800000e-02 6.800000e-02 0.9977 -14.9216 21.3141)">
				<stop  offset="0" style="stop-color:#BBAEC4"/>
				<stop  offset="1" style="stop-color:#DED1E8"/>
			</linearGradient>
			<path fill="url(#SVGID_00000019661741406489148510000012157985785702163390_)" d="M273.9,145.7c0,0.4,0,0.9,0,1.3
				c-0.1,2.2-0.3,4.5-0.7,7.1c-0.1,0.4-0.1,0.8-0.2,1.3c-0.4,2.2-0.8,4.5-1.4,6.8c-0.1,0.4-0.2,0.8-0.3,1.2
				c-0.7,2.6-1.6,5.3-2.7,8.1c-0.2,0.4-0.3,0.8-0.5,1.2c-0.9,2.3-2,4.7-3.2,7.1c-0.2,0.4-0.4,0.8-0.6,1.1c-1.1,2-2.3,4.1-3.6,6.2
				c-0.1,0.2-0.2,0.3-0.3,0.5c0,0,0,0,0,0c-0.3,0.2-0.5,0.3-0.8,0.5c-9.5,5-20.9-1.5-20.9-6.2c0,0,0-0.1,0-0.2
				c0-0.3,0.1-0.7,0.2-1.3c0.3-1.5,0.9-3.9,1.7-6.7c0.1-0.4,0.2-0.8,0.4-1.2c0.7-2.3,1.5-4.8,2.3-7.4c0.1-0.4,0.3-0.8,0.4-1.2
				c0.9-2.7,2-5.4,3-8c0.2-0.4,0.3-0.8,0.5-1.2c1-2.3,2-4.4,3-6.3c0.2-0.4,0.4-0.8,0.6-1.1c0.3-0.4,0.5-0.9,0.8-1.3
				c1.1-1.7,2.2-3.3,3.3-4.7c0.3-0.4,0.6-0.7,0.9-1.1c2.2-2.6,4.4-4.7,6.5-6.1c0.5-0.3,1-0.6,1.5-0.9c2.6-1.4,5-1.8,6.9-1
				c0.9,0.4,1.8,1.7,2.4,3.8c0.1,0.4,0.2,0.9,0.4,1.4C273.7,139.6,274,142.4,273.9,145.7z"/>
			<g>
				<path fill="#988CA5" d="M273.2,137.4l-11-3.4c0.5-0.3,1-0.6,1.5-0.9l9.2,2.8C273,136.4,273.1,136.9,273.2,137.4z"/>
				<path fill="#988CA5" d="M273.9,145.7c0,0.4,0,0.9,0,1.3l-19-5.8c0.3-0.4,0.6-0.7,0.9-1.1L273.9,145.7z"/>
				<path fill="#988CA5" d="M273.2,154c-0.1,0.4-0.1,0.8-0.2,1.3l-22.9-7c0.2-0.4,0.4-0.8,0.6-1.1L273.2,154z"/>
				<path fill="#988CA5" d="M271.6,162.1c-0.1,0.4-0.2,0.8-0.3,1.2l-24.6-7.5c0.2-0.4,0.3-0.8,0.5-1.2L271.6,162.1z"/>
				<path fill="#988CA5" d="M268.6,171.4c-0.2,0.4-0.3,0.8-0.5,1.2l-24.9-7.6c0.1-0.4,0.3-0.8,0.4-1.2L268.6,171.4z"/>
				<path fill="#988CA5" d="M264.9,179.7c-0.2,0.4-0.4,0.8-0.6,1.1l-23.8-7.3c0.1-0.4,0.2-0.8,0.4-1.2L264.9,179.7z"/>
				<path fill="#988CA5" d="M260.7,187c-0.1,0.2-0.2,0.3-0.3,0.5c0,0,0,0,0,0c-0.3,0.2-0.5,0.3-0.8,0.5l-20.9-6.4
					c0-0.3,0.1-0.7,0.2-1.3L260.7,187z"/>
			</g>
		</g>
		<g>
			<path fill="#ACA5B5" d="M193.3,183c0,0-1.8-4.4-3.5-6.1s-33.3-19-47.2-7.7L193.3,183z"/>
			
				<linearGradient id="SVGID_00000181057167387655544830000016292786724090807475_" gradientUnits="userSpaceOnUse" x1="-1454.3439" y1="710.7347" x2="-1417.7046" y2="710.7347" gradientTransform="matrix(-0.819 0.5738 0.5738 0.819 -1413.8455 423.6141)">
				<stop  offset="0" style="stop-color:#E1DAE5"/>
				<stop  offset="1" style="stop-color:#F7F4F9"/>
			</linearGradient>
			<path fill="url(#SVGID_00000181057167387655544830000016292786724090807475_)" d="M197.3,194.6c0,0,1.1-5-5.2-13.4
				s-45.9-23.4-51.2-9.3L197.3,194.6z"/>
			
				<linearGradient id="SVGID_00000055676901121474734530000003224605374823559568_" gradientUnits="userSpaceOnUse" x1="151.1606" y1="181.0571" x2="201.25" y2="173.9629" gradientTransform="matrix(0.9977 -6.800000e-02 6.800000e-02 0.9977 -14.9216 21.3141)">
				<stop  offset="0" style="stop-color:#BBAEC4"/>
				<stop  offset="1" style="stop-color:#DED1E8"/>
			</linearGradient>
			<path fill="url(#SVGID_00000055676901121474734530000003224605374823559568_)" d="M146.4,184.2c0.3,0.3,0.6,0.7,0.8,1
				c1.4,1.6,3.1,3.4,4.9,5.1c0.3,0.3,0.6,0.6,0.9,0.9c1.6,1.5,3.4,2.9,5.4,4.4c0.3,0.2,0.7,0.5,1,0.7c2.2,1.6,4.6,3.1,7.2,4.6
				c0.4,0.2,0.7,0.4,1.1,0.6c2.2,1.2,4.5,2.4,7,3.5c0.4,0.2,0.8,0.3,1.2,0.5c2.1,0.9,4.4,1.8,6.7,2.5c0.2,0.1,0.4,0.1,0.6,0.2
				c0,0,0,0,0,0c0.3,0,0.6-0.1,0.9-0.2c10.5-2.1,15.3-14.3,12.4-18c0,0-0.1-0.1-0.1-0.1c-0.2-0.2-0.5-0.5-0.9-0.9
				c-1.2-1-3.1-2.5-5.5-4.2c-0.3-0.2-0.7-0.5-1-0.7c-1.9-1.3-4.1-2.8-6.4-4.3c-0.4-0.2-0.7-0.4-1.1-0.7c-2.4-1.5-4.9-3-7.4-4.3
				c-0.4-0.2-0.7-0.4-1.1-0.6c-2.2-1.2-4.3-2.2-6.3-3c-0.4-0.2-0.8-0.3-1.2-0.5c-0.5-0.2-0.9-0.4-1.4-0.5c-1.9-0.7-3.8-1.2-5.5-1.6
				c-0.4-0.1-0.9-0.2-1.3-0.3c-3.4-0.7-6.4-0.9-8.9-0.6c-0.6,0.1-1.1,0.1-1.7,0.2c-2.9,0.5-5,1.7-6,3.5c-0.5,0.9-0.3,2.4,0.6,4.5
				c0.2,0.4,0.4,0.9,0.6,1.3C142.8,179.3,144.4,181.7,146.4,184.2z"/>
			<g>
				<path fill="#988CA5" d="M141.8,177.3l6.5-9.6c-0.6,0.1-1.1,0.1-1.7,0.2l-5.4,8C141.3,176.4,141.5,176.9,141.8,177.3z"/>
				<path fill="#988CA5" d="M146.4,184.2c0.3,0.3,0.6,0.7,0.8,1l11.1-16.5c-0.4-0.1-0.9-0.2-1.3-0.3L146.4,184.2z"/>
				<path fill="#988CA5" d="M152.2,190.3c0.3,0.3,0.6,0.6,0.9,0.9l13.4-19.8c-0.4-0.2-0.8-0.3-1.2-0.5L152.2,190.3z"/>
				<path fill="#988CA5" d="M158.6,195.5c0.3,0.2,0.7,0.5,1,0.7l14.4-21.3c-0.4-0.2-0.7-0.4-1.1-0.6L158.6,195.5z"/>
				<path fill="#988CA5" d="M166.8,200.9c0.4,0.2,0.7,0.4,1.1,0.6l14.6-21.6c-0.4-0.2-0.7-0.4-1.1-0.7L166.8,200.9z"/>
				<path fill="#988CA5" d="M174.8,205c0.4,0.2,0.8,0.3,1.2,0.5l13.9-20.6c-0.3-0.2-0.7-0.5-1-0.7L174.8,205z"/>
				<path fill="#988CA5" d="M182.7,208.1c0.2,0.1,0.4,0.1,0.6,0.2c0,0,0,0,0,0c0.3,0,0.6-0.1,0.9-0.2l12.3-18.1
					c-0.2-0.2-0.5-0.5-0.9-0.9L182.7,208.1z"/>
			</g>
		</g>
	</g>
	
		<linearGradient id="SVGID_00000168835652038221345630000009134225740564069024_" gradientUnits="userSpaceOnUse" x1="269.6024" y1="80.9466" x2="165.4149" y2="152.9306" gradientTransform="matrix(0.9977 -6.800000e-02 6.800000e-02 0.9977 -14.9216 21.3141)">
		<stop  offset="0" style="stop-color:#04074A"/>
		<stop  offset="0.8902" style="stop-color:#000000;stop-opacity:0"/>
	</linearGradient>
	<path fill="url(#SVGID_00000168835652038221345630000009134225740564069024_)" d="M273.2,137.4c-0.1-0.5-0.2-1-0.4-1.4
		c-0.6-2.1-1.4-3.5-2.4-3.8c-0.7-0.3-1.4-0.4-2.1-0.4c-0.3-0.1-0.6-0.1-1-0.2l0,0c-0.2,0-0.4,0-0.6,0c-0.8,0-1.7,0.1-2.5,0.3
		c-4,0.9-7.7,3.3-11.1,6.4c-0.2-2-0.7-6.1-1.1-10.1c-0.3-3.3-1.7-6.3-3.2-8.3c-1-1.4-2-2.4-2.7-2.8c0,0-2.6-9.6-8.6-11.9
		c-0.1,0-0.2-0.1-0.3-0.1c-0.1,0-0.1,0-0.2-0.1c0,0,0,0,0,0c-2.3-0.8-4.2-0.9-5.6-0.8c0,0,0,0,0,0c0,0-0.4,0-1.1,0.1c0,0,0,0,0,0
		c-0.1,0-0.2,0-0.3,0.1c-0.6,0.1-1,0.3-1.3,0.4c0,0,0,0,0,0c-0.1,0-0.2,0.1-0.3,0.1c0,0,0,0,0,0c0,0,0,0,0,0c0,0,0,0,0,0
		c0,0,0,0,0-0.1c0,0,0,0,0,0c0,0,0,0,0-0.1c0,0,0,0,0,0c0,0,0,0,0-0.1c0,0,0,0,0,0c0,0,0-0.1,0-0.1c0,0,0,0,0,0
		c0-0.1,0.1-0.3,0.1-0.5c0,0,0,0,0,0c0,0,0-0.1,0-0.1c0,0,0,0,0-0.1c0,0,0-0.1,0-0.1c0,0,0,0,0-0.1c0,0,0-0.1,0-0.1c0,0,0,0,0-0.1
		c0-0.1,0-0.1,0-0.2c0,0,0,0,0-0.1c0-0.1,0-0.1,0-0.2c0,0,0,0,0,0c0-0.2,0-0.3,0-0.5c0-0.1,0-0.2,0-0.4c0-0.2,0-0.4-0.1-0.7
		c0.6-0.1,1.1-0.3,1.6-0.6c1.2-0.7,2-1.3,2.4-2c0.7-1,0.5-1.9,0-2.8c-0.3-0.5-1.1-0.8-1.9-1.1c-1.3-0.4-2.7-0.5-2.9-0.5
		c0-0.9-0.1-1.9-0.3-3c0-0.1,0-0.3-0.1-0.4l0,0c-0.1-0.7-0.3-1.3-0.5-2c0,0,0.6,0.4,1.6,0.9c0.1,0,0.1,0.1,0.1,0.1c0,0,0,0,0.1,0
		c0.1,0,0.1,0,0.1,0l0,0c2.3,1.2,6.3,2.8,10,2c0.3-0.1,0.7-0.2,1-0.3c0.5-0.2,0.9-0.4,1.3-0.6c2.5-1.3,3.8-3.1,4.6-4.5
		c1.3,0.1,2.5,0.1,3.6-0.1c3.1-0.6,5-2.1,5-2.1s0.2,0.3,0.7,0.4c0,0,0,0,0,0c0,0,0.1,0,0.1,0c0,0,0,0,0,0c0,0,0.1,0,0.1,0
		c0,0,0,0,0.1,0c0,0,0.1,0,0.1,0c0,0,0,0,0.1,0c0,0,0.1,0,0.1,0c0,0,0,0,0.1,0c0,0,0.1,0,0.1,0c0,0,0,0,0.1,0c0,0,0.1,0,0.1,0
		c0,0,0.1,0,0.1,0c0,0,0.1,0,0.1,0c0,0,0.1,0,0.1,0c0.1,0,0.1,0,0.2,0c0,0,0,0,0.1,0c0.1,0,0.1,0,0.2,0c0,0,0,0,0.1,0
		c0.2,0,0.4,0,0.6-0.1c0,0,0,0,0,0c0.1,0,0.2,0,0.3-0.1c0,0,0,0,0.1,0c0.1,0,0.2,0,0.2-0.1c0,0,0.1,0,0.1,0c0.1,0,0.2,0,0.2-0.1
		c0,0,0.1,0,0.1,0c0,0,0.1,0,0.1,0c0,0,0.1,0,0.1,0c0,0,0,0,0,0c0.1,0,0.2-0.1,0.4-0.1c3.8-1.3,4.8-3.6,4.5-5.1
		c-0.1-0.4-0.4-0.7-0.9-0.9c0,0,0,0,0,0c-1.1-0.4-2.9-0.2-3.7-0.1c-1.1,0.1-1.4-0.1-1.1-1c0,0,0-0.1,0.1-0.1c0.5-0.2,1-0.4,1.4-0.6
		c0.9-0.4,1.7-0.9,2.4-1.5c1.2-0.9,1.6-2.7,1.2-4.4c-0.2-0.8-1-1.2-2.1-1.1c-1.1,0-2.4,0.5-3.3,1.1c-1.9,1.3-2.7,1.1-3,0
		c-0.2-0.8,1.2-2.1,2.5-3.4c0,0,0.1-0.1,0.1-0.1c0.5-0.3,0.9-0.7,1.1-1.2c0,0,0,0,0,0c0.1-0.1,0.1-0.1,0.2-0.2
		c1.2-1.6-0.2-4.1-2.9-4.1c-0.3,0-0.5,0.1-0.8,0.1l0,0c-2,0.8-2.2,4.4-3.5,4.2c-1.5-0.3-0.7-1.7,0.8-3.9c0.2-0.3,0.4-0.6,0.6-0.9
		c0,0,0-0.1,0.1-0.1c0.2-0.2,0.3-0.4,0.3-0.6c0,0,0,0,0,0c0-0.1,0.1-0.1,0.1-0.2c0,0,0,0,0,0c0-0.1,0-0.1,0.1-0.2c0,0,0,0,0,0
		c0-0.1,0-0.1,0.1-0.2c0,0,0,0,0,0c0.1-0.2,0.1-0.3,0.2-0.5c0,0,0-0.1,0-0.1c0,0,0-0.1,0-0.1c0,0,0-0.1,0-0.1c0,0,0-0.1,0-0.1
		c0,0,0-0.1,0-0.1c0,0,0-0.1,0-0.1c0,0,0-0.1,0-0.1c0,0,0-0.1,0-0.1c0,0,0-0.1,0-0.1c0,0,0-0.1,0-0.1c0,0,0-0.1,0-0.1
		c0,0,0-0.1,0-0.1c0,0,0-0.1,0-0.1c0,0,0-0.1,0-0.1c0-0.1,0-0.1,0-0.2c0,0,0-0.1,0-0.1c0,0,0-0.1,0-0.1c0,0,0-0.1,0-0.1
		c0,0,0-0.1,0-0.1c0,0,0-0.1,0-0.1c0,0,0-0.1,0-0.1c0,0,0-0.1,0-0.1c0,0,0-0.1,0-0.1c0,0,0-0.1,0-0.1c0,0,0-0.1,0-0.1
		c0,0,0-0.1,0-0.1c0,0,0-0.1,0-0.1c0,0,0-0.1,0-0.1c0,0,0-0.1,0-0.1c0,0,0-0.1,0-0.1c0,0,0-0.1,0-0.1c0,0,0-0.1,0-0.1
		c0,0,0-0.1,0-0.1c0,0,0,0,0-0.1c0,0,0-0.1,0-0.1c0,0,0,0,0-0.1c0,0,0,0-0.1-0.1c0,0,0,0-0.1-0.1c0,0,0,0-0.1-0.1c0,0,0,0-0.1-0.1
		c0,0,0,0-0.1-0.1c0,0,0,0-0.1-0.1c0,0-0.1,0-0.1-0.1c0,0,0,0-0.1,0c0,0-0.1,0-0.1-0.1c0,0,0,0-0.1,0c-0.1,0-0.1-0.1-0.2-0.1
		c-0.5-0.2-1-0.2-1.5,0c-2.2,0.8-4.8,4.9-5.9,9.5c-0.4,1.7-0.8,2.7-1.1,3.4c-0.5,1.1-0.9,1.1-1,1c-0.1,0-0.1-0.1-0.1-0.1
		c-0.6-0.6-1.8-5.3-2.6-8.2c-0.1-0.5-0.3-0.9-0.4-1.4c-0.8-2.2-1.9-3.8-3.4-3.9c-0.1,0-0.1,0-0.2,0c0,0-0.1,0-0.1,0c0,0-0.1,0-0.1,0
		c0,0-0.1,0-0.1,0c0,0-0.1,0-0.1,0c0,0-0.1,0-0.1,0c0,0-0.1,0-0.1,0c0,0,0,0-0.1,0c0,0,0,0,0,0c-0.1,0-0.1,0-0.2,0c0,0,0,0,0,0
		c-0.1,0-0.1,0-0.2,0.1c0,0,0,0,0,0c0,0-0.1,0-0.1,0.1c0,0,0,0,0,0c0,0-0.1,0.1-0.1,0.1c0,0,0,0,0,0c0,0-0.1,0.1-0.1,0.1
		c0,0,0,0,0,0c0,0-0.1,0.1-0.1,0.1c0,0,0,0,0,0c0,0-0.1,0.1-0.1,0.2c0,0,0,0,0,0c0,0.1-0.1,0.1-0.1,0.2c0,0,0,0,0,0.1
		c0,0.1,0,0.1-0.1,0.2c0,0,0,0,0,0c0,0.1,0,0.1-0.1,0.2c0,0,0,0,0,0.1c0,0.1,0,0.2,0,0.2c0,0,0,0,0,0.1c0,0.1,0,0.2,0,0.3
		c0,0,0,0,0,0.1c0,0.1,0,0.2,0,0.3c0,0,0,0,0,0c0,0.1,0,0.2,0,0.3c0,0,0,0.1,0,0.1c0,0.1,0,0.2,0,0.3c0,0,0,0,0,0.1
		c0,0.1,0,0.3,0,0.4c0,0.6,0.1,1.2,0.3,1.7c0.5,2,1.5,3.7,1.9,6c0.1,0.6,0.1,1.3,0.1,1.9c-0.3,0.1-0.7,0.3-1,0.4
		c-0.6,0.3-1.2,0.6-1.8,1.1l0,0c-0.1,0.1-0.1,0.1-0.2,0.2l0,0c0,0,0,0,0,0c0,0,0,0,0,0c0,0,0,0,0,0c0,0,0,0,0,0
		c-0.1,0.1-0.2,0.2-0.3,0.3c0,0-0.1,0.1-0.1,0.1c-0.1,0.1-0.1,0.1-0.2,0.2c0,0-0.1,0.1-0.1,0.2c0,0-0.1,0.1-0.1,0.1
		c-0.1,0.1-0.1,0.1-0.2,0.2c0,0,0,0-0.1,0.1c0,0-0.1,0.1-0.1,0.1c0,0-0.4-0.7-1.2-1.5c-0.9-1-2.3-2.2-4.1-2.8
		c-0.2-0.4-0.3-0.8-0.5-1.2c-0.5-3.4-1.4-7.8-2.2-8.4c-0.8-0.6-1.3-1.3-5.8-0.8c-0.1-0.1-0.3-0.2-0.4-0.2c0.4-0.9,0.6-1.5,0.6-1.5
		c0.1-0.7,0.1-1.4,0.1-2.1c0.9-0.3,2.6-0.9,3.1-1.3c1.1-0.9-2.3-11.8-3.5-11.8c-0.4,0-2.7,0.3-3.7,0.4c-3.6-4.9-9.3-7.9-15.6-7.6
		l-0.5-1.1c-3.6,0.1-6.6,1-9,2.8l0.3,0.9c-5.6,3.3-8.6,9.3-8.6,15.6c-0.9,0.5-2.9,1.6-3.2,1.9c-1,0.7,2.9,11.5,4.3,11.6
		c0.6,0,2.3-0.5,3.2-0.8c0.3,0.4,0.7,0.9,1.1,1.3c-4.1,1.6-6.7,2.9-7.1,3.4c-0.5,0.7,0.3,4.1,1,6.6c-1.4,0.9-3.1,2.9-3.6,7
		c0,0.2-0.1,0.4-0.1,0.6c0,0-0.4,0.1-0.8,0.4c-0.2,0.2-0.5,0.4-0.7,0.8c0,0.1-0.1,0.1-0.1,0.2c0,0.1-0.1,0.2-0.1,0.2c0,0,0,0,0,0.1
		c0,0.1-0.1,0.1-0.1,0.2c0,0,0,0,0,0c0,0.1-0.1,0.2-0.1,0.3c0,0,0,0,0,0.1c0,0.1,0,0.2-0.1,0.3c0,0,0,0,0,0c0,0,0,0,0,0
		c0,0.1,0,0.2,0,0.2c0,0,0,0.1,0,0.1c0,0.1,0,0.2,0,0.3l0,0c0,0,0,0,0,0c0,0,0,0,0,0c0,0,0,0,0,0c0,0,0,0,0-0.1c0,0,0,0,0,0
		c0,0,0,0,0,0c0,0,0,0,0,0c0,0,0,0,0-0.1c0,0,0,0,0,0c0,0,0-0.1-0.1-0.1c0,0,0,0,0,0c0,0-0.1-0.1-0.1-0.1c0,0,0,0,0,0
		c0,0-0.1-0.1-0.1-0.1c0,0-0.1-0.1-0.1-0.1c0,0,0,0,0,0c0,0,0,0,0,0c0,0,0,0-0.1-0.1c-0.1,0-0.1-0.1-0.2-0.1c0,0,0,0,0,0
		c-0.2-0.1-0.4-0.3-0.6-0.4c0,0,0,0,0,0c-0.5-0.3-1.1-0.6-2-0.8c-0.7-2.5-1.7-4.8-1.7-7c0-2.4,0.6-4.2,0.8-6.2c0-0.6,0-1.1-0.1-1.7
		c0-0.1,0-0.3-0.1-0.4c0,0,0,0,0-0.1c0-0.1,0-0.2-0.1-0.3c0,0,0-0.1,0-0.1c0-0.1,0-0.2-0.1-0.3c0,0,0,0,0,0c0-0.1,0-0.2-0.1-0.3
		c0,0,0,0,0-0.1c0-0.1-0.1-0.2-0.1-0.3c0,0,0,0,0-0.1c0-0.1-0.1-0.2-0.1-0.2c0,0,0,0,0-0.1c0-0.1-0.1-0.1-0.1-0.2c0,0,0,0,0,0
		c0-0.1-0.1-0.1-0.1-0.2c0,0,0,0,0,0c0-0.1-0.1-0.1-0.1-0.2c0,0,0,0,0,0c0,0-0.1-0.1-0.1-0.1c0,0,0,0,0,0c0,0-0.1-0.1-0.1-0.1
		c0,0,0,0,0,0c0,0-0.1-0.1-0.1-0.1c0,0,0,0,0,0c-0.1,0-0.1,0-0.2-0.1c0,0,0,0,0,0c0,0-0.1,0-0.2,0c0,0,0,0,0,0c-0.1,0-0.1,0-0.2,0
		c0,0,0,0,0,0c-0.1,0-0.1,0-0.2,0c0,0,0,0,0,0c0,0,0,0-0.1,0c0,0-0.1,0-0.1,0c0,0-0.1,0-0.1,0c0,0-0.1,0-0.1,0c0,0-0.1,0-0.1,0
		c0,0-0.1,0-0.1,0c0,0,0,0-0.1,0c-0.1,0-0.1,0-0.2,0c-1.4,0.4-2.2,2.1-2.6,4.5c-0.1,0.5-0.1,0.9-0.2,1.4c-0.3,3-0.6,7.8-1.1,8.5
		c0,0,0,0.1-0.1,0.1c-0.1,0.2-0.5,0.3-1.2-0.7c-0.4-0.6-1-1.6-1.7-3.1c-1.9-4.3-5.2-7.8-7.6-8.2c-0.6-0.1-1.1,0-1.5,0.3
		c-0.1,0-0.1,0.1-0.2,0.1c0,0,0,0-0.1,0c0,0-0.1,0.1-0.1,0.1c0,0,0,0-0.1,0.1c0,0,0,0.1-0.1,0.1c0,0,0,0-0.1,0.1c0,0,0,0.1-0.1,0.1
		c0,0,0,0,0,0.1c0,0,0,0.1,0,0.1c0,0,0,0,0,0.1c0,0,0,0.1,0,0.1c0,0,0,0,0,0.1c0,0,0,0.1,0,0.1c0,0,0,0.1,0,0.1c0,0,0,0.1,0,0.1
		c0,0,0,0.1,0,0.1c0,0,0,0.1,0,0.1c0,0,0,0.1,0,0.1c0,0,0,0.1,0,0.1c0,0,0,0.1,0,0.1c0,0,0,0.1,0,0.1c0,0,0,0.1,0,0.1
		c0,0,0,0.1,0,0.1c0,0,0,0.1,0,0.1c0,0,0,0.1,0,0.1c0,0,0,0.1,0,0.1s0,0.1,0,0.1c0,0,0,0.1,0,0.1c0,0,0,0.1,0,0.1c0,0,0,0.1,0,0.1
		c0,0,0,0.1,0,0.1c0,0,0,0.1,0,0.1c0,0.1,0,0.1,0.1,0.2c0,0,0,0.1,0,0.1c0,0,0,0.1,0,0.1c0,0,0,0.1,0,0.1c0,0,0,0.1,0,0.1
		c0,0,0,0.1,0,0.1c0,0,0,0.1,0,0.1c0,0,0,0.1,0,0.1c0,0,0,0.1,0,0.1c0,0,0,0.1,0.1,0.1c0,0,0,0.1,0,0.1c0,0,0,0.1,0.1,0.1
		c0,0,0,0.1,0.1,0.1c0,0,0,0.1,0.1,0.1c0,0,0,0,0,0.1c0.1,0.1,0.2,0.3,0.3,0.4c0,0,0,0,0,0c0,0,0.1,0.1,0.1,0.1c0,0,0,0,0,0
		c0,0,0.1,0.1,0.1,0.1c0,0,0,0,0,0c0,0,0.1,0.1,0.1,0.1c0,0,0,0,0,0c0.1,0.3,0.2,0.5,0.5,0.6c0,0,0,0.1,0.1,0.1
		c0.2,0.3,0.5,0.6,0.7,0.8c1.9,1.9,2.9,3.1,1.5,3.7c-1.2,0.5-2.1-3.1-4.2-3.5l0,0c-0.2,0-0.5,0-0.8,0c-2.7,0.5-3.6,3.2-2.1,4.6
		c0.1,0.1,0.1,0.1,0.2,0.2c0,0,0,0,0,0c0.3,0.5,0.8,0.8,1.3,1c0,0,0.1,0,0.1,0.1c1.5,1,3.1,2.1,3.1,2.9c-0.1,1.1-0.8,1.5-3,0.5
		c-1.1-0.5-2.4-0.7-3.5-0.5c-1,0.2-1.8,0.6-1.8,1.5c0,1.7,0.7,3.4,2,4.1c0.9,0.5,1.7,0.7,2.6,1c0.5,0.1,0.9,0.2,1.5,0.4
		c0,0,0.1,0.1,0.1,0.1c0.5,0.8,0.2,1.1-0.9,1.2c-0.8,0.1-2.6,0.2-3.6,0.8c0,0,0,0,0,0c-0.4,0.3-0.7,0.6-0.7,1c0,1.6,1.4,3.7,5.3,4.2
		c0.1,0,0.3,0,0.4,0c0,0,0,0,0.1,0c0,0,0.1,0,0.1,0c0.1,0,0.1,0,0.1,0c0,0,0.1,0,0.1,0c0.1,0,0.2,0,0.2,0c0,0,0.1,0,0.1,0
		c0.1,0,0.2,0,0.3,0c0,0,0,0,0.1,0c0.1,0,0.2,0,0.3,0c0,0,0,0,0,0c0.2,0,0.4,0,0.6,0c0,0,0,0,0.1,0c0.1,0,0.1,0,0.2,0c0,0,0,0,0.1,0
		c0.1,0,0.1,0,0.2,0c0,0,0.1,0,0.1,0c0,0,0.1,0,0.1,0c0,0,0,0,0.1,0c0,0,0.1,0,0.1,0c0,0,0,0,0.1,0c0,0,0.1,0,0.1,0c0,0,0,0,0.1,0
		c0,0,0.1,0,0.1,0c0,0,0,0,0.1,0c0,0,0.1,0,0.1,0c0,0,0,0,0,0c0,0,0.1,0,0.1,0c0,0,0,0,0,0c0,0,0.1,0,0.1-0.1c0,0,0,0,0,0
		c0.5-0.3,0.6-0.6,0.6-0.6s1.7,0.9,4.3,1.1l-0.1,0.2c0,0,4.4,4.7,10.8,5.3c1.2,0.1,2.5,0.1,3.9-0.2c1-0.2,2-0.5,3-0.9
		c0,0,2.7,0.7,6.5-1.4l0,0c0.3-0.2,0.7-0.4,1.1-0.7c0,0,0.1,0.6,0.3,1.3c0,0.2,0.1,0.3,0.2,0.5l0,0c0,0,0,0-0.1,0.1
		c0,0-0.1,0.1-0.1,0.1c-0.1,0.1-0.2,0.1-0.3,0.2c-0.9,0.8-2.8,2.6-2.6,3.7c0.2,1.1,1.2,1.6,2.8,1.6c-0.1,0.1-0.7,0.4-1.4,0.9
		c0,0,0,0,0,0c-1.1,0.7-2.5,1.5-3.2,2.1c0,0,0,0-0.1,0.1c0,0,0,0,0,0c-1.3,1-1.9,2.5-4.1,4.2c-2.3,1.7-2.2,3-3,6.5
		c-0.4,1.5-0.8,3.1-1.1,4.3c-0.4,1.6-0.8,2.7-0.8,2.7s-0.7,0.6-1.5,1.7c0,0,0,0,0,0.1c0,0,0,0,0,0c0,0,0,0.1-0.1,0.1c0,0,0,0,0,0.1
		c0,0,0,0,0,0l0,0c-0.3,0.5-0.7,1-1,1.6c-0.3,0.6-0.6,1.2-0.8,1.9c-0.1,0.4-0.2,0.8-0.3,1.2c-0.3,1.6-0.5,3.2-0.6,4.5
		c0,0.6-0.1,1.2-0.1,1.6c0,1.1,0,1.8,0,1.8s-0.4,0.5-1,1.4c0,0,0,0,0,0c-0.5,0.7-1,1.7-1.4,2.8c-0.4,1-0.6,2.1-0.7,3.3
		c-0.3,3.8,3.9,14.2,4.9,16.7c-8.2-2.4-17.2-3.5-23.7-0.2c-0.8,0.4-1.5,0.8-2.2,1.3c-0.2,0.1-0.3,0.3-0.5,0.4l0.1,0
		c-0.2,0.2-0.5,0.5-0.7,0.7c-0.6,0.5-1.1,1-1.4,1.6c-0.5,0.9-0.3,2.4,0.6,4.5c0.2,0.4,0.4,0.9,0.6,1.3c1,2,2.6,4.4,4.7,6.9
		c0.3,0.3,0.6,0.7,0.8,1c1.4,1.6,3.1,3.4,4.9,5.1c0.3,0.3,0.6,0.6,0.9,0.9c1.6,1.5,3.4,2.9,5.4,4.4c0.3,0.2,0.7,0.5,1,0.7
		c2.2,1.6,4.6,3.1,7.2,4.6c0.4,0.2,0.7,0.4,1.1,0.6c2.2,1.2,4.5,2.4,7,3.5c0.4,0.2,0.8,0.3,1.2,0.5c2.1,0.9,4.4,1.8,6.7,2.5
		c0.2,0.1,0.4,0.1,0.6,0.2c0,0,0,0,0,0c0.3,0,0.6-0.1,0.9-0.2c7.7-1.5,12.3-8.4,13.1-13.5c0,0,0-0.1,0-0.3c0.2-1.3,0.1-2.4-0.3-3.3
		c-0.5-2-1.5-4.6-3.7-7.9c0,0-1-2.4-2.2-4.3c0.1-2.9,0.2-7.3-0.1-10.6c-0.5-5.3-2.2-9.5-1.9-12.4c0,0,2.5-1.2,4.6-10
		c0.3-1.1,0.5-2.3,0.8-3.6c0,0,0.1,0,0.2-0.1c1.1-0.4,6.7-2.4,8.9-7.4c2.5-5.5,4.9-6.3,6.3-5.5c1.3,0.9,6.9,6.2,15.1,5.8
		c0,0,0.2,0.5,0.7,1.3l0,0c0.5,0.9,1.2,2,2.1,3.2c1.3,1.7,3.1,3.5,5.1,4.5c0,0,0.9,4.5,0.8,11.3c-0.1,5.1,0.5,11.4,2.2,15.3
		c0.3,1.8,0.8,3.4,0.8,3.4c0.4,4,1.3,6.7,2.1,8.5c0.3,0.9,0.9,1.9,1.9,2.8c0.2,0.2,0.2,0.2,0.2,0.2c3.8,3.5,11.8,5.9,18.7,2.3
		c0.3-0.1,0.5-0.3,0.8-0.5c0,0,0,0,0,0c0.1-0.2,0.2-0.3,0.3-0.5c1.3-2.1,2.5-4.1,3.6-6.2c0.2-0.4,0.4-0.8,0.6-1.1
		c1.2-2.4,2.3-4.8,3.2-7.1c0.2-0.4,0.3-0.8,0.5-1.2c1.1-2.8,1.9-5.5,2.7-8.1c0.1-0.4,0.2-0.8,0.3-1.2c0.6-2.4,1.1-4.6,1.4-6.8
		c0.1-0.4,0.1-0.8,0.2-1.3c0.4-2.5,0.6-4.9,0.7-7.1c0-0.4,0-0.9,0-1.3C274,142.4,273.7,139.6,273.2,137.4z M170.2,130.8
		C170.2,130.8,170.2,130.8,170.2,130.8C170.2,130.8,170.2,130.8,170.2,130.8C170.2,130.8,170.2,130.8,170.2,130.8z M185.6,106.7
		c-0.1,0-0.1,0-0.2,0c-0.2,0-0.3-0.1-0.4-0.2c-0.1,0-0.1-0.1-0.2-0.2c0,0,0-0.1,0-0.1c0-0.1,0-0.1,0-0.2c0-0.2,0.1-0.5,0.2-0.8
		c0-0.1,0.1-0.2,0.2-0.3c0.1-0.2,0.2-0.4,0.4-0.5c0,0,0.1-0.1,0.1-0.1c0.1-0.1,0.1-0.2,0.2-0.2c0.3-0.3,0.5-0.6,0.5-0.6
		S185.8,104.9,185.6,106.7z M228,97.2L228,97.2c0,0,3.4-0.6,3.9,0.2c0.4,0.5,0.1,1.4-1.2,1.9c-0.5,0.2-1.2,0.3-2,0.4
		c-0.2-0.6-0.4-1.4-0.7-2.2C227.9,97.5,227.9,97.4,228,97.2z"/>
	
		<linearGradient id="SVGID_00000164491558987726509870000018103064670973559738_" gradientUnits="userSpaceOnUse" x1="260.2234" y1="77.3389" x2="156.7931" y2="174.3286" gradientTransform="matrix(0.9977 -6.800000e-02 6.800000e-02 0.9977 -14.9216 21.3141)">
		<stop  offset="0" style="stop-color:#04074A"/>
		<stop  offset="1" style="stop-color:#04074A"/>
	</linearGradient>
	<path opacity="0.57" fill="url(#SVGID_00000164491558987726509870000018103064670973559738_)" d="M273.2,137.4
		c-0.1-0.5-0.2-1-0.4-1.4c-0.6-2.1-1.4-3.5-2.4-3.8c-0.7-0.3-1.4-0.4-2.1-0.4c-0.3-0.1-0.6-0.1-1-0.2l0,0c-0.2,0-0.4,0-0.6,0
		c-0.8,0-1.7,0.1-2.5,0.3c-4,0.9-7.7,3.3-11.1,6.4c-0.2-2-0.7-6.1-1.1-10.1c-0.3-3.3-1.7-6.3-3.2-8.3c-1-1.4-2-2.4-2.7-2.8
		c0,0-2.6-9.6-8.6-11.9c-0.1,0-0.2-0.1-0.3-0.1c-0.1,0-0.1,0-0.2-0.1c0,0,0,0,0,0c-2.3-0.8-4.2-0.9-5.6-0.8c0,0,0,0,0,0
		c0,0-0.4,0-1.1,0.1c0,0,0,0,0,0c-0.1,0-0.2,0-0.3,0.1c-0.6,0.1-1,0.3-1.3,0.4c0,0,0,0,0,0c-0.1,0-0.2,0.1-0.3,0.1c0,0,0,0,0,0
		c0,0,0,0,0,0c0,0,0,0,0,0c0,0,0,0,0-0.1c0,0,0,0,0,0c0,0,0,0,0-0.1c0,0,0,0,0,0c0,0,0,0,0-0.1c0,0,0,0,0,0c0,0,0-0.1,0-0.1
		c0,0,0,0,0,0c0-0.1,0.1-0.3,0.1-0.5c0,0,0,0,0,0c0,0,0-0.1,0-0.1c0,0,0,0,0-0.1c0,0,0-0.1,0-0.1c0,0,0,0,0-0.1c0,0,0-0.1,0-0.1
		c0,0,0,0,0-0.1c0-0.1,0-0.1,0-0.2c0,0,0,0,0-0.1c0-0.1,0-0.1,0-0.2c0,0,0,0,0,0c0-0.2,0-0.3,0-0.5c0-0.1,0-0.2,0-0.4
		c0-0.2,0-0.4-0.1-0.7c0.6-0.1,1.1-0.3,1.6-0.6c1.2-0.7,2-1.3,2.4-2c0.7-1,0.5-1.9,0-2.8c-0.3-0.5-1.1-0.8-1.9-1.1
		c-1.3-0.4-2.7-0.5-2.9-0.5c0-0.9-0.1-1.9-0.3-3c0-0.1,0-0.3-0.1-0.4l0,0c-0.1-0.7-0.3-1.3-0.5-2c0,0,0.6,0.4,1.6,0.9
		c0.1,0,0.1,0.1,0.1,0.1c0,0,0,0,0.1,0c0.1,0,0.1,0,0.1,0l0,0c2.3,1.2,6.3,2.8,10,2c0.3-0.1,0.7-0.2,1-0.3c0.5-0.2,0.9-0.4,1.3-0.6
		c2.5-1.3,3.8-3.1,4.6-4.5c1.3,0.1,2.5,0.1,3.6-0.1c3.1-0.6,5-2.1,5-2.1s0.2,0.3,0.7,0.4c0,0,0,0,0,0c0,0,0.1,0,0.1,0c0,0,0,0,0,0
		c0,0,0.1,0,0.1,0c0,0,0,0,0.1,0c0,0,0.1,0,0.1,0c0,0,0,0,0.1,0c0,0,0.1,0,0.1,0c0,0,0,0,0.1,0c0,0,0.1,0,0.1,0c0,0,0,0,0.1,0
		c0,0,0.1,0,0.1,0c0,0,0.1,0,0.1,0c0,0,0.1,0,0.1,0c0,0,0.1,0,0.1,0c0.1,0,0.1,0,0.2,0c0,0,0,0,0.1,0c0.1,0,0.1,0,0.2,0
		c0,0,0,0,0.1,0c0.2,0,0.4,0,0.6-0.1c0,0,0,0,0,0c0.1,0,0.2,0,0.3-0.1c0,0,0,0,0.1,0c0.1,0,0.2,0,0.2-0.1c0,0,0.1,0,0.1,0
		c0.1,0,0.2,0,0.2-0.1c0,0,0.1,0,0.1,0c0,0,0.1,0,0.1,0c0,0,0.1,0,0.1,0c0,0,0,0,0,0c0.1,0,0.2-0.1,0.4-0.1c3.8-1.3,4.8-3.6,4.5-5.1
		c-0.1-0.4-0.4-0.7-0.9-0.9c0,0,0,0,0,0c-1.1-0.4-2.9-0.2-3.7-0.1c-1.1,0.1-1.4-0.1-1.1-1c0,0,0-0.1,0.1-0.1c0.5-0.2,1-0.4,1.4-0.6
		c0.9-0.4,1.7-0.9,2.4-1.5c1.2-0.9,1.6-2.7,1.2-4.4c-0.2-0.8-1-1.2-2.1-1.1c-1.1,0-2.4,0.5-3.3,1.1c-1.9,1.3-2.7,1.1-3,0
		c-0.2-0.8,1.2-2.1,2.5-3.4c0,0,0.1-0.1,0.1-0.1c0.5-0.3,0.9-0.7,1.1-1.2c0,0,0,0,0,0c0.1-0.1,0.1-0.1,0.2-0.2
		c1.2-1.6-0.2-4.1-2.9-4.1c-0.3,0-0.5,0.1-0.8,0.1l0,0c-2,0.8-2.2,4.4-3.5,4.2c-1.5-0.3-0.7-1.7,0.8-3.9c0.2-0.3,0.4-0.6,0.6-0.9
		c0,0,0-0.1,0.1-0.1c0.2-0.2,0.3-0.4,0.3-0.6c0,0,0,0,0,0c0-0.1,0.1-0.1,0.1-0.2c0,0,0,0,0,0c0-0.1,0-0.1,0.1-0.2c0,0,0,0,0,0
		c0-0.1,0-0.1,0.1-0.2c0,0,0,0,0,0c0.1-0.2,0.1-0.3,0.2-0.5c0,0,0-0.1,0-0.1c0,0,0-0.1,0-0.1c0,0,0-0.1,0-0.1c0,0,0-0.1,0-0.1
		c0,0,0-0.1,0-0.1c0,0,0-0.1,0-0.1c0,0,0-0.1,0-0.1c0,0,0-0.1,0-0.1c0,0,0-0.1,0-0.1c0,0,0-0.1,0-0.1c0,0,0-0.1,0-0.1
		c0,0,0-0.1,0-0.1c0,0,0-0.1,0-0.1c0,0,0-0.1,0-0.1c0-0.1,0-0.1,0-0.2c0,0,0-0.1,0-0.1c0,0,0-0.1,0-0.1c0,0,0-0.1,0-0.1
		c0,0,0-0.1,0-0.1c0,0,0-0.1,0-0.1c0,0,0-0.1,0-0.1c0,0,0-0.1,0-0.1c0,0,0-0.1,0-0.1c0,0,0-0.1,0-0.1c0,0,0-0.1,0-0.1
		c0,0,0-0.1,0-0.1c0,0,0-0.1,0-0.1c0,0,0-0.1,0-0.1c0,0,0-0.1,0-0.1c0,0,0-0.1,0-0.1c0,0,0-0.1,0-0.1c0,0,0-0.1,0-0.1
		c0,0,0-0.1,0-0.1c0,0,0,0,0-0.1c0,0,0-0.1,0-0.1c0,0,0,0,0-0.1c0,0,0,0-0.1-0.1c0,0,0,0-0.1-0.1c0,0,0,0-0.1-0.1c0,0,0,0-0.1-0.1
		c0,0,0,0-0.1-0.1c0,0,0,0-0.1-0.1c0,0-0.1,0-0.1-0.1c0,0,0,0-0.1,0c0,0-0.1,0-0.1-0.1c0,0,0,0-0.1,0c-0.1,0-0.1-0.1-0.2-0.1
		c-0.5-0.2-1-0.2-1.5,0c-2.2,0.8-4.8,4.9-5.9,9.5c-0.4,1.7-0.8,2.7-1.1,3.4c-0.5,1.1-0.9,1.1-1,1c-0.1,0-0.1-0.1-0.1-0.1
		c-0.6-0.6-1.8-5.3-2.6-8.2c-0.1-0.5-0.3-0.9-0.4-1.4c-0.8-2.2-1.9-3.8-3.4-3.9c-0.1,0-0.1,0-0.2,0c0,0-0.1,0-0.1,0c0,0-0.1,0-0.1,0
		c0,0-0.1,0-0.1,0c0,0-0.1,0-0.1,0c0,0-0.1,0-0.1,0c0,0-0.1,0-0.1,0c0,0,0,0-0.1,0c0,0,0,0,0,0c-0.1,0-0.1,0-0.2,0c0,0,0,0,0,0
		c-0.1,0-0.1,0-0.2,0.1c0,0,0,0,0,0c0,0-0.1,0-0.1,0.1c0,0,0,0,0,0c0,0-0.1,0.1-0.1,0.1c0,0,0,0,0,0c0,0-0.1,0.1-0.1,0.1
		c0,0,0,0,0,0c0,0-0.1,0.1-0.1,0.1c0,0,0,0,0,0c0,0-0.1,0.1-0.1,0.2c0,0,0,0,0,0c0,0.1-0.1,0.1-0.1,0.2c0,0,0,0,0,0.1
		c0,0.1,0,0.1-0.1,0.2c0,0,0,0,0,0c0,0.1,0,0.1-0.1,0.2c0,0,0,0,0,0.1c0,0.1,0,0.2,0,0.2c0,0,0,0,0,0.1c0,0.1,0,0.2,0,0.3
		c0,0,0,0,0,0.1c0,0.1,0,0.2,0,0.3c0,0,0,0,0,0c0,0.1,0,0.2,0,0.3c0,0,0,0.1,0,0.1c0,0.1,0,0.2,0,0.3c0,0,0,0,0,0.1
		c0,0.1,0,0.3,0,0.4c0,0.6,0.1,1.2,0.3,1.7c0.5,2,1.5,3.7,1.9,6c0.1,0.6,0.1,1.3,0.1,1.9c-0.3,0.1-0.7,0.3-1,0.4
		c-0.6,0.3-1.2,0.6-1.8,1.1l0,0c-0.1,0.1-0.1,0.1-0.2,0.2l0,0c0,0,0,0,0,0c0,0,0,0,0,0c0,0,0,0,0,0c0,0,0,0,0,0
		c-0.1,0.1-0.2,0.2-0.3,0.3c0,0-0.1,0.1-0.1,0.1c-0.1,0.1-0.1,0.1-0.2,0.2c0,0-0.1,0.1-0.1,0.2c0,0-0.1,0.1-0.1,0.1
		c-0.1,0.1-0.1,0.1-0.2,0.2c0,0,0,0-0.1,0.1c0,0-0.1,0.1-0.1,0.1c0,0-0.4-0.7-1.2-1.5c-0.9-1-2.3-2.2-4.1-2.8
		c-0.2-0.4-0.3-0.8-0.5-1.2c-0.5-3.4-1.4-7.8-2.2-8.4c-0.8-0.6-1.3-1.3-5.8-0.8c-0.1-0.1-0.3-0.2-0.4-0.2c0.4-0.9,0.6-1.5,0.6-1.5
		c0.1-0.7,0.1-1.4,0.1-2.1c0.9-0.3,2.6-0.9,3.1-1.3c1.1-0.9-2.3-11.8-3.5-11.8c-0.4,0-2.7,0.3-3.7,0.4c-3.6-4.9-9.3-7.9-15.6-7.6
		l-0.5-1.1c-3.6,0.1-6.6,1-9,2.8l0.3,0.9c-5.6,3.3-8.6,9.3-8.6,15.6c-0.9,0.5-2.9,1.6-3.2,1.9c-1,0.7,2.9,11.5,4.3,11.6
		c0.6,0,2.3-0.5,3.2-0.8c0.3,0.4,0.7,0.9,1.1,1.3c-4.1,1.6-6.7,2.9-7.1,3.4c-0.5,0.7,0.3,4.1,1,6.6c-1.4,0.9-3.1,2.9-3.6,7
		c0,0.2-0.1,0.4-0.1,0.6c0,0-0.4,0.1-0.8,0.4c-0.2,0.2-0.5,0.4-0.7,0.8c0,0.1-0.1,0.1-0.1,0.2c0,0.1-0.1,0.2-0.1,0.2c0,0,0,0,0,0.1
		c0,0.1-0.1,0.1-0.1,0.2c0,0,0,0,0,0c0,0.1-0.1,0.2-0.1,0.3c0,0,0,0,0,0.1c0,0.1,0,0.2-0.1,0.3c0,0,0,0,0,0c0,0,0,0,0,0
		c0,0.1,0,0.2,0,0.2c0,0,0,0.1,0,0.1c0,0.1,0,0.2,0,0.3l0,0c0,0,0,0,0,0c0,0,0,0,0,0c0,0,0,0,0,0c0,0,0,0,0-0.1c0,0,0,0,0,0
		c0,0,0,0,0,0c0,0,0,0,0,0c0,0,0,0,0-0.1c0,0,0,0,0,0c0,0,0-0.1-0.1-0.1c0,0,0,0,0,0c0,0-0.1-0.1-0.1-0.1c0,0,0,0,0,0
		c0,0-0.1-0.1-0.1-0.1c0,0-0.1-0.1-0.1-0.1c0,0,0,0,0,0c0,0,0,0,0,0c0,0,0,0-0.1-0.1c-0.1,0-0.1-0.1-0.2-0.1c0,0,0,0,0,0
		c-0.2-0.1-0.4-0.3-0.6-0.4c0,0,0,0,0,0c-0.5-0.3-1.1-0.6-2-0.8c-0.7-2.5-1.7-4.8-1.7-7c0-2.4,0.6-4.2,0.8-6.2c0-0.6,0-1.1-0.1-1.7
		c0-0.1,0-0.3-0.1-0.4c0,0,0,0,0-0.1c0-0.1,0-0.2-0.1-0.3c0,0,0-0.1,0-0.1c0-0.1,0-0.2-0.1-0.3c0,0,0,0,0,0c0-0.1,0-0.2-0.1-0.3
		c0,0,0,0,0-0.1c0-0.1-0.1-0.2-0.1-0.3c0,0,0,0,0-0.1c0-0.1-0.1-0.2-0.1-0.2c0,0,0,0,0-0.1c0-0.1-0.1-0.1-0.1-0.2c0,0,0,0,0,0
		c0-0.1-0.1-0.1-0.1-0.2c0,0,0,0,0,0c0-0.1-0.1-0.1-0.1-0.2c0,0,0,0,0,0c0,0-0.1-0.1-0.1-0.1c0,0,0,0,0,0c0,0-0.1-0.1-0.1-0.1
		c0,0,0,0,0,0c0,0-0.1-0.1-0.1-0.1c0,0,0,0,0,0c-0.1,0-0.1,0-0.2-0.1c0,0,0,0,0,0c0,0-0.1,0-0.2,0c0,0,0,0,0,0c-0.1,0-0.1,0-0.2,0
		c0,0,0,0,0,0c-0.1,0-0.1,0-0.2,0c0,0,0,0,0,0c0,0,0,0-0.1,0c0,0-0.1,0-0.1,0c0,0-0.1,0-0.1,0c0,0-0.1,0-0.1,0c0,0-0.1,0-0.1,0
		c0,0-0.1,0-0.1,0c0,0,0,0-0.1,0c-0.1,0-0.1,0-0.2,0c-1.4,0.4-2.2,2.1-2.6,4.5c-0.1,0.5-0.1,0.9-0.2,1.4c-0.3,3-0.6,7.8-1.1,8.5
		c0,0,0,0.1-0.1,0.1c-0.1,0.2-0.5,0.3-1.2-0.7c-0.4-0.6-1-1.6-1.7-3.1c-1.9-4.3-5.2-7.8-7.6-8.2c-0.6-0.1-1.1,0-1.5,0.3
		c-0.1,0-0.1,0.1-0.2,0.1c0,0,0,0-0.1,0c0,0-0.1,0.1-0.1,0.1c0,0,0,0-0.1,0.1c0,0,0,0.1-0.1,0.1c0,0,0,0-0.1,0.1c0,0,0,0.1-0.1,0.1
		c0,0,0,0,0,0.1c0,0,0,0.1,0,0.1c0,0,0,0,0,0.1c0,0,0,0.1,0,0.1c0,0,0,0,0,0.1c0,0,0,0.1,0,0.1c0,0,0,0.1,0,0.1c0,0,0,0.1,0,0.1
		c0,0,0,0.1,0,0.1c0,0,0,0.1,0,0.1c0,0,0,0.1,0,0.1c0,0,0,0.1,0,0.1c0,0,0,0.1,0,0.1c0,0,0,0.1,0,0.1c0,0,0,0.1,0,0.1
		c0,0,0,0.1,0,0.1c0,0,0,0.1,0,0.1c0,0,0,0.1,0,0.1c0,0,0,0.1,0,0.1s0,0.1,0,0.1c0,0,0,0.1,0,0.1c0,0,0,0.1,0,0.1c0,0,0,0.1,0,0.1
		c0,0,0,0.1,0,0.1c0,0,0,0.1,0,0.1c0,0.1,0,0.1,0.1,0.2c0,0,0,0.1,0,0.1c0,0,0,0.1,0,0.1c0,0,0,0.1,0,0.1c0,0,0,0.1,0,0.1
		c0,0,0,0.1,0,0.1c0,0,0,0.1,0,0.1c0,0,0,0.1,0,0.1c0,0,0,0.1,0,0.1c0,0,0,0.1,0.1,0.1c0,0,0,0.1,0,0.1c0,0,0,0.1,0.1,0.1
		c0,0,0,0.1,0.1,0.1c0,0,0,0.1,0.1,0.1c0,0,0,0,0,0.1c0.1,0.1,0.2,0.3,0.3,0.4c0,0,0,0,0,0c0,0,0.1,0.1,0.1,0.1c0,0,0,0,0,0
		c0,0,0.1,0.1,0.1,0.1c0,0,0,0,0,0c0,0,0.1,0.1,0.1,0.1c0,0,0,0,0,0c0.1,0.3,0.2,0.5,0.5,0.6c0,0,0,0.1,0.1,0.1
		c0.2,0.3,0.5,0.6,0.7,0.8c1.9,1.9,2.9,3.1,1.5,3.7c-1.2,0.5-2.1-3.1-4.2-3.5l0,0c-0.2,0-0.5,0-0.8,0c-2.7,0.5-3.6,3.2-2.1,4.6
		c0.1,0.1,0.1,0.1,0.2,0.2c0,0,0,0,0,0c0.3,0.5,0.8,0.8,1.3,1c0,0,0.1,0,0.1,0.1c1.5,1,3.1,2.1,3.1,2.9c-0.1,1.1-0.8,1.5-3,0.5
		c-1.1-0.5-2.4-0.7-3.5-0.5c-1,0.2-1.8,0.6-1.8,1.5c0,1.7,0.7,3.4,2,4.1c0.9,0.5,1.7,0.7,2.6,1c0.5,0.1,0.9,0.2,1.5,0.4
		c0,0,0.1,0.1,0.1,0.1c0.5,0.8,0.2,1.1-0.9,1.2c-0.8,0.1-2.6,0.2-3.6,0.8c0,0,0,0,0,0c-0.4,0.3-0.7,0.6-0.7,1c0,1.6,1.4,3.7,5.3,4.2
		c0.1,0,0.3,0,0.4,0c0,0,0,0,0.1,0c0,0,0.1,0,0.1,0c0.1,0,0.1,0,0.1,0c0,0,0.1,0,0.1,0c0.1,0,0.2,0,0.2,0c0,0,0.1,0,0.1,0
		c0.1,0,0.2,0,0.3,0c0,0,0,0,0.1,0c0.1,0,0.2,0,0.3,0c0,0,0,0,0,0c0.2,0,0.4,0,0.6,0c0,0,0,0,0.1,0c0.1,0,0.1,0,0.2,0c0,0,0,0,0.1,0
		c0.1,0,0.1,0,0.2,0c0,0,0.1,0,0.1,0c0,0,0.1,0,0.1,0c0,0,0,0,0.1,0c0,0,0.1,0,0.1,0c0,0,0,0,0.1,0c0,0,0.1,0,0.1,0c0,0,0,0,0.1,0
		c0,0,0.1,0,0.1,0c0,0,0,0,0.1,0c0,0,0.1,0,0.1,0c0,0,0,0,0,0c0,0,0.1,0,0.1,0c0,0,0,0,0,0c0,0,0.1,0,0.1-0.1c0,0,0,0,0,0
		c0.5-0.3,0.6-0.6,0.6-0.6s1.7,0.9,4.3,1.1l-0.1,0.2c0,0,4.4,4.7,10.8,5.3c1.2,0.1,2.5,0.1,3.9-0.2c1-0.2,2-0.5,3-0.9
		c0,0,2.7,0.7,6.5-1.4l0,0c0.3-0.2,0.7-0.4,1.1-0.7c0,0,0.1,0.6,0.3,1.3c0,0.2,0.1,0.3,0.2,0.5l0,0c0,0,0,0-0.1,0.1
		c0,0-0.1,0.1-0.1,0.1c-0.1,0.1-0.2,0.1-0.3,0.2c-0.9,0.8-2.8,2.6-2.6,3.7c0.2,1.1,1.2,1.6,2.8,1.6c-0.1,0.1-0.7,0.4-1.4,0.9
		c0,0,0,0,0,0c-1.1,0.7-2.5,1.5-3.2,2.1c0,0,0,0-0.1,0.1c0,0,0,0,0,0c-1.3,1-1.9,2.5-4.1,4.2c-2.3,1.7-2.2,3-3,6.5
		c-0.4,1.5-0.8,3.1-1.1,4.3c-0.4,1.6-0.8,2.7-0.8,2.7s-0.7,0.6-1.5,1.7c0,0,0,0,0,0.1c0,0,0,0,0,0c0,0,0,0.1-0.1,0.1c0,0,0,0,0,0.1
		c0,0,0,0,0,0l0,0c-0.3,0.5-0.7,1-1,1.6c-0.3,0.6-0.6,1.2-0.8,1.9c-0.1,0.4-0.2,0.8-0.3,1.2c-0.3,1.6-0.5,3.2-0.6,4.5
		c0,0.6-0.1,1.2-0.1,1.6c0,1.1,0,1.8,0,1.8s-0.4,0.5-1,1.4c0,0,0,0,0,0c-0.5,0.7-1,1.7-1.4,2.8c-0.4,1-0.6,2.1-0.7,3.3
		c-0.3,3.8,3.9,14.2,4.9,16.7c-8.2-2.4-17.2-3.5-23.7-0.2c-0.8,0.4-1.5,0.8-2.2,1.3c-0.2,0.1-0.3,0.3-0.5,0.4l0.1,0
		c-0.2,0.2-0.5,0.5-0.7,0.7c-0.6,0.5-1.1,1-1.4,1.6c-0.5,0.9-0.3,2.4,0.6,4.5c0.2,0.4,0.4,0.9,0.6,1.3c1,2,2.6,4.4,4.7,6.9
		c0.3,0.3,0.6,0.7,0.8,1c1.4,1.6,3.1,3.4,4.9,5.1c0.3,0.3,0.6,0.6,0.9,0.9c1.6,1.5,3.4,2.9,5.4,4.4c0.3,0.2,0.7,0.5,1,0.7
		c2.2,1.6,4.6,3.1,7.2,4.6c0.4,0.2,0.7,0.4,1.1,0.6c2.2,1.2,4.5,2.4,7,3.5c0.4,0.2,0.8,0.3,1.2,0.5c2.1,0.9,4.4,1.8,6.7,2.5
		c0.2,0.1,0.4,0.1,0.6,0.2c0,0,0,0,0,0c0.3,0,0.6-0.1,0.9-0.2c7.7-1.5,12.3-8.4,13.1-13.5c0,0,0-0.1,0-0.3c0.2-1.3,0.1-2.4-0.3-3.3
		c-0.5-2-1.5-4.6-3.7-7.9c0,0-1-2.4-2.2-4.3c0.1-2.9,0.2-7.3-0.1-10.6c-0.5-5.3-2.2-9.5-1.9-12.4c0,0,2.5-1.2,4.6-10
		c0.3-1.1,0.5-2.3,0.8-3.6c0,0,0.1,0,0.2-0.1c1.1-0.4,6.7-2.4,8.9-7.4c2.5-5.5,4.9-6.3,6.3-5.5c1.3,0.9,6.9,6.2,15.1,5.8
		c0,0,0.2,0.5,0.7,1.3l0,0c0.5,0.9,1.2,2,2.1,3.2c1.3,1.7,3.1,3.5,5.1,4.5c0,0,0.9,4.5,0.8,11.3c-0.1,5.1,0.5,11.4,2.2,15.3
		c0.3,1.8,0.8,3.4,0.8,3.4c0.4,4,1.3,6.7,2.1,8.5c0.3,0.9,0.9,1.9,1.9,2.8c0.2,0.2,0.2,0.2,0.2,0.2c3.8,3.5,11.8,5.9,18.7,2.3
		c0.3-0.1,0.5-0.3,0.8-0.5c0,0,0,0,0,0c0.1-0.2,0.2-0.3,0.3-0.5c1.3-2.1,2.5-4.1,3.6-6.2c0.2-0.4,0.4-0.8,0.6-1.1
		c1.2-2.4,2.3-4.8,3.2-7.1c0.2-0.4,0.3-0.8,0.5-1.2c1.1-2.8,1.9-5.5,2.7-8.1c0.1-0.4,0.2-0.8,0.3-1.2c0.6-2.4,1.1-4.6,1.4-6.8
		c0.1-0.4,0.1-0.8,0.2-1.3c0.4-2.5,0.6-4.9,0.7-7.1c0-0.4,0-0.9,0-1.3C274,142.4,273.7,139.6,273.2,137.4z M170.2,130.8
		C170.2,130.8,170.2,130.8,170.2,130.8C170.2,130.8,170.2,130.8,170.2,130.8C170.2,130.8,170.2,130.8,170.2,130.8z M185.6,106.7
		c-0.1,0-0.1,0-0.2,0c-0.2,0-0.3-0.1-0.4-0.2c-0.1,0-0.1-0.1-0.2-0.2c0,0,0-0.1,0-0.1c0-0.1,0-0.1,0-0.2c0-0.2,0.1-0.5,0.2-0.8
		c0-0.1,0.1-0.2,0.2-0.3c0.1-0.2,0.2-0.4,0.4-0.5c0,0,0.1-0.1,0.1-0.1c0.1-0.1,0.1-0.2,0.2-0.2c0.3-0.3,0.5-0.6,0.5-0.6
		S185.8,104.9,185.6,106.7z M228,97.2L228,97.2c0,0,3.4-0.6,3.9,0.2c0.4,0.5,0.1,1.4-1.2,1.9c-0.5,0.2-1.2,0.3-2,0.4
		c-0.2-0.6-0.4-1.4-0.7-2.2C227.9,97.5,227.9,97.4,228,97.2z"/>
</g>
</svg>
