<?xml version="1.0" encoding="utf-8"?>
<!-- Generator: Adobe Illustrator 26.0.3, SVG Export Plug-In . SVG Version: 6.00 Build 0)  -->
<svg version="1.1" id="Layer_1" xmlns="http://www.w3.org/2000/svg" xmlns:xlink="http://www.w3.org/1999/xlink" x="0px" y="0px"
	 viewBox="0 0 512 512" style="enable-background:new 0 0 512 512;" xml:space="preserve">
<style type="text/css">
	.st0{fill:#00F388;}
	.st1{fill:#191919;}
</style>
<path class="st0" d="M397.5,512h-283C51.3,512,0,460.7,0,397.5v-283C0,51.3,51.3,0,114.5,0h283C460.7,0,512,51.3,512,114.5v283
	C512,460.7,460.7,512,397.5,512z"/>
<g>
	<g>
		<rect x="232.3" y="185.6" class="st1" width="0.1" height="41.7"/>
	</g>
	<g>
		<path class="st1" d="M172.4,285.1c-5.2,6.9-13.6,10.3-24.9,10.3c-11.4,0-19.7-3.4-24.9-10.3c-5.2-6.9-7.9-15.2-7.9-24.9V140.9h-52
			v119.2c0,15.7,2.4,29,7.3,39.7c4.9,10.7,11.4,19.4,19.5,25.9s17.3,11.2,27.4,14.1s20.3,4.3,30.6,4.3c10.3,0,20.5-1.4,30.6-4.3
			c0.7-0.2,1.4-0.4,2.1-0.7v-77.4C180,270.9,177.4,278.6,172.4,285.1z"/>
	</g>
	<path class="st1" d="M232.3,268.8h24.9l33.9,72.6h57.2l-39-80.5c10.8-4.9,19.4-12.1,25.6-21.5c6.2-9.5,9.3-21,9.3-34.5
		c0-13.9-3.2-25.6-9.5-35.1s-15.2-16.7-26.6-21.5s-24.6-7.3-39.6-7.3h-36.3v44.7h35.4c7.2,0,13.1,1.8,17.6,5.3s6.8,8.7,6.8,15.6
		c0,6.7-2.3,11.8-6.8,15.4c-4.5,3.6-10.4,5.4-17.6,5.4h-35.4v32.8c0,15.7-2.4,29-7.3,39.7c-4.9,10.7-11.4,19.4-19.5,25.9"/>
	<g>
		<path class="st1" d="M180.3,140.9L180.3,140.9l-0.1,120.9c0-0.6,0.1-1.1,0.1-1.7V140.9z"/>
	</g>
	<g>
		<path class="st1" d="M225,299.9c4.9-10.7,7.3-24,7.3-39.7v-32.8h-0.1v-41.7h0.1v-44.7h-52v119.2c0,0.6,0,1.1-0.1,1.7v77.4
			c9.3-2.9,17.7-7.4,25.3-13.4C213.6,319.3,220.1,310.6,225,299.9z"/>
	</g>
	<g>
		<path class="st1" d="M312.5,391.1l-54.9-121.8l51.1-8.8l39.1,82.3l47.4-152.3h54.2l-66.7,200.5L312.5,391.1L312.5,391.1z"/>
	</g>
</g>
</svg>
