<?xml version="1.0" encoding="utf-8"?>
<!-- Generator: Adobe Illustrator 26.0.3, SVG Export Plug-In . SVG Version: 6.00 Build 0)  -->
<svg version="1.1" id="Layer_1" xmlns="http://www.w3.org/2000/svg" xmlns:xlink="http://www.w3.org/1999/xlink" x="0px" y="0px"
	 viewBox="0 0 379.77 379.83" style="enable-background:new 0 0 379.77 379.83;" xml:space="preserve">
<style type="text/css">
	.st0{fill:#00F388;}
</style>
<g>
	<path class="st0" d="M0,175.36c0-9.63,0-19.26,0-28.89c0.16-0.85,0.38-1.68,0.47-2.54C3.23,116.82,12.56,91.97,28,69.74
		C57.38,27.45,98.57,4.78,149.52,0.56c37.64-3.11,72.52,6.82,103.14,28.72c46.73,33.42,69.28,79.61,68.4,137.09
		c-0.45,29.65-9.16,56.81-25.36,81.57c-1.92,2.93-1.81,4.7,0.73,7.22c24.01,23.82,47.9,47.77,71.8,71.71
		c1.83,1.83,3.66,3.7,5.22,5.75c7.13,9.41,8.19,19.66,3.39,30.33c-4,8.9-11.4,14.01-20.5,16.88c-4.2,0-8.4,0-12.59,0
		c-7.28-2.01-12.75-6.63-17.97-11.87c-23.35-23.44-46.85-46.74-70.29-70.09c-4.12-4.11-4.13-4.11-9.14-0.87
		c-26.48,17.1-55.66,25.03-87,24.91c-24.54-0.1-47.81-5.84-69.94-16.71c-39.52-19.4-65.79-50.32-80.83-91.29
		C3.99,201.44,1.67,188.47,0,175.36z M262.04,161c0-56.26-45.17-101.6-101.29-101.68c-56.32-0.08-101.87,45.26-101.96,101.51
		c-0.09,56.33,45.22,101.26,101.6,101.87C215.38,263.29,263.17,216.16,262.04,161z"/>
</g>
</svg>
