<?xml version="1.0" encoding="utf-8"?>
<!-- Generator: Adobe Illustrator 26.0.3, SVG Export Plug-In . SVG Version: 6.00 Build 0)  -->
<svg version="1.1" id="Layer_1" xmlns="http://www.w3.org/2000/svg" xmlns:xlink="http://www.w3.org/1999/xlink" x="0px" y="0px"
	 viewBox="0 0 128 128" enable-background="new 0 0 128 128" xml:space="preserve">
<g>
	<g>
		<path d="M64.6,117.8c-7.3,0-14.6,0-21.9,0c-4.7,0-9.4-0.6-13.8-2.3c-9.8-3.8-15.2-11.3-17.5-21.4c-0.5-2.4-0.7-4.9-0.7-7.4
			c0-15,0-29.9,0-44.9c0-5,0.8-9.9,2.8-14.5c4-9.1,11.2-14,20.7-15.8c2.9-0.6,5.9-0.7,8.8-0.7c14,0,27.9,0,41.9,0
			c1.1,0,1.7-0.3,2.4-1.2c1.9-2.9,4.9-4,8.2-4.1c5.8-0.1,11.6-0.1,17.4,0c5.8,0.1,10,4.3,10.1,10.1c0.1,5.8,0.1,11.6,0,17.4
			c-0.1,3.3-1.2,6.2-4.1,8.2c-0.7,0.5-0.7,1.2-0.7,1.9c0,10.1,0,20.2,0,30.2c0,4.8,0.1,9.6,0,14.4c-0.1,5.4-1.1,10.6-3.7,15.4
			c-4.3,8-11.1,12.3-19.9,14c-2.9,0.6-5.9,0.7-8.8,0.7C78.8,117.8,71.7,117.8,64.6,117.8z M20.1,62.5C20.1,62.5,20.1,62.5,20.1,62.5
			c0,8.1,0,16.2,0,24.4c0,2.9,0.3,5.7,1.1,8.5c0.5,1.7,0.5,1.7,1.9,0.7c6-4.1,12-8.1,18-12.2c5.3-3.5,10.8-3,15.3,1.5
			c4.1,4.1,10.5,4.4,15,0.8c2.3-1.8,4.4-3.8,6.7-5.7c5.3-4.6,10.7-9.2,16-13.7c4.3-3.6,9.8-3.8,14.3-0.6c0.3,0.2,0.5,0.6,0.8,0.5
			c0.4-0.2,0.2-0.7,0.2-1c0-7.1,0-14.2,0-21.2c0-1-0.3-1.4-1.4-1.4c-4,0-8.1,0-12.1,0c-2.2,0-4.3-0.5-6.2-1.7
			c-3.1-2-4.2-5.1-4.3-8.5c-0.1-4,0-8,0-12c0-1.7,0-1.7-1.7-1.7c-14,0-27.9,0-41.9,0c-2.1,0-4.2,0.2-6.2,0.5c-5,0.9-9.4,3-12.3,7.3
			c-2.4,3.5-3.3,7.5-3.3,11.7C20,46.6,20.1,54.6,20.1,62.5z M107.2,31.8C107.2,31.8,107.2,31.8,107.2,31.8c0-1,0-2.1,0-3.1
			c0-1,0.4-1.4,1.4-1.4c2,0,4,0,6,0c1.8,0,3.3-1.4,3.3-2.9c0-1.7-1.4-3-3.3-3c-2,0-4,0-6,0c-1,0-1.4-0.4-1.4-1.4c0-2,0-4,0-6
			c0-1.9-1.3-3.3-3-3.3c-1.7,0-2.9,1.4-3,3.3c0,2,0,3.9,0,5.9c0,1.1-0.4,1.5-1.5,1.5c-2,0-4,0-6,0c-1.8,0-3.2,1.3-3.2,2.9
			c0,1.7,1.4,3,3.3,3c2,0,3.9,0.1,5.9,0c1.1,0,1.6,0.4,1.5,1.5c-0.1,2,0,4,0,6c0,1.7,1.4,3.2,2.9,3.2c1.6,0,3.1-1.5,3.1-3.3
			C107.3,33.7,107.2,32.7,107.2,31.8z"/>
		<path d="M48.2,55.8c-7,0-13-6-12.9-12.9c0.1-7,6-12.9,12.9-13c7,0,13,6,13,13C61.2,49.9,55.2,55.8,48.2,55.8z"/>
	</g>
</g>
</svg>
